<svg width="343" height="50" viewBox="0 0 343 50" fill="none" xmlns="http://www.w3.org/2000/svg">
<path d="M15.8681 7.19021C15.8681 7.78527 15.7689 8.52908 15.5705 9.42166C15.4052 10.2812 15.1242 11.2068 14.7275 12.1986C14.3639 13.1573 13.9011 14.116 13.3391 15.0747C12.7771 16.0333 12.1159 16.8929 11.3556 17.6532C10.6283 18.3805 9.7853 18.9921 8.82661 19.488C7.90097 19.9508 6.87616 20.1657 5.75217 20.1326C3.96701 20.1326 2.56203 19.6202 1.53722 18.5954C0.512406 17.5706 0 16.1656 0 14.3804C0 12.8928 0.413231 11.3886 1.23969 9.86795C2.06615 8.3142 3.15708 6.92575 4.51248 5.70258C5.86787 4.44636 7.40509 3.43808 9.12413 2.67774C10.8432 1.88433 12.5787 1.48763 14.3308 1.48763C15.7193 1.48763 16.7937 1.66945 17.554 2.03309C18.3474 2.36368 18.959 2.80997 19.3888 3.37196C19.8185 3.9009 20.1326 4.47942 20.3309 5.10753C20.5624 5.73564 20.7938 6.33069 21.0252 6.89269C21.2566 7.45468 21.5541 7.95056 21.9178 8.38032C22.3145 8.77702 22.9095 9.02496 23.7029 9.12413C24.0335 8.49602 24.5128 7.75221 25.141 6.89269C25.7691 6.00011 26.4633 5.15712 27.2236 4.36372C28.017 3.57031 28.827 2.89261 29.6534 2.33062C30.5129 1.76863 31.3229 1.48763 32.0832 1.48763C32.6452 1.48763 33.108 1.63639 33.4717 1.93392C33.8353 2.23145 34.0171 2.74385 34.0171 3.47114C34.0171 4.06619 33.7857 4.72736 33.3229 5.45464C32.8601 6.18193 32.232 6.87616 31.4386 7.53733C30.6782 8.16544 29.7857 8.7109 28.7608 9.17372C27.7691 9.63654 26.7112 9.91753 25.5872 10.0167C24.5955 14.6449 23.0583 19.0913 20.9756 23.3558C18.926 27.5873 16.397 31.5378 13.3887 35.2072L13.4878 35.3064C15.9672 33.6204 18.2813 31.7361 20.4301 29.6534C22.5789 27.5707 24.6451 25.4219 26.6286 23.207C28.6121 20.9591 30.5295 18.6946 32.3807 16.4135C34.232 14.0994 36.0833 11.868 37.9346 9.71918C40.5131 6.77698 42.5628 4.67777 44.0834 3.42155C45.6041 2.13227 46.8108 1.48763 47.7033 1.48763C48.2653 1.48763 48.7447 1.68598 49.1414 2.08268C49.5711 2.44633 49.786 2.89262 49.786 3.42155C49.786 3.85131 49.6373 4.26454 49.3397 4.66124C49.0753 5.05794 48.7116 5.25629 48.2488 5.25629C47.8521 5.25629 47.5381 5.19018 47.3066 5.05794C47.1083 4.92571 46.9265 4.77695 46.7612 4.61165C46.5959 4.44636 46.3975 4.2976 46.1661 4.16536C45.9678 4.03313 45.6868 3.96702 45.3231 3.96702C44.6289 3.96702 43.6702 4.54554 42.447 5.70258C41.2239 6.85963 39.8354 8.33073 38.2817 10.1159C36.761 11.868 35.1246 13.8019 33.3725 15.9176C31.6535 18.0334 29.9675 20.0499 28.3146 21.9673C26.0666 24.5459 23.9674 26.7773 22.0169 28.6617C20.0665 30.546 18.3474 32.1163 16.8598 33.3725C15.4052 34.5957 14.2151 35.5048 13.2895 36.0998C12.3969 36.6949 11.8845 36.9924 11.7523 36.9924C11.4548 36.9924 11.306 36.8602 11.306 36.5957C11.306 36.3974 11.3721 36.2486 11.5043 36.1494C11.6366 36.0502 11.8349 35.9015 12.0994 35.7031C12.8928 35.075 13.6366 34.1329 14.3308 32.8766C15.0581 31.5873 15.7358 30.1493 16.3639 28.5625C17.0251 26.9757 17.6367 25.2897 18.1987 23.5046C18.7937 21.6863 19.3723 19.9342 19.9342 18.2483C20.4962 16.5623 21.0417 14.992 21.5706 13.5374C22.1326 12.0829 22.7112 10.8762 23.3062 9.91754C21.9178 9.62001 20.8268 9.22331 20.0334 8.72743C19.2731 8.1985 18.6615 7.65303 18.1987 7.09104C17.7359 6.52904 17.3722 5.96705 17.1077 5.40506C16.8763 4.81001 16.6119 4.2976 16.3143 3.86784C16.0499 3.40502 15.7028 3.02485 15.273 2.72732C14.8432 2.4298 14.2151 2.28103 13.3887 2.28103C12.0663 2.28103 10.6613 2.61162 9.17372 3.27279C7.68609 3.93396 6.31416 4.82653 5.05794 5.95052C3.83478 7.04145 2.80997 8.3142 1.98351 9.76877C1.1901 11.1903 0.793403 12.6779 0.793403 14.2317C0.793403 15.7193 1.12399 16.8598 1.78516 17.6532C2.44633 18.4466 3.42155 18.8433 4.71083 18.8433C5.96705 18.8433 7.28939 18.4466 8.67784 17.6532C10.0663 16.8268 11.2564 15.6697 12.2482 14.1821C12.9093 13.1903 13.4383 12.2482 13.835 11.3556C14.2317 10.463 14.5457 9.68613 14.7771 9.02496C15.0085 8.36379 15.1738 7.83485 15.273 7.43815C15.3722 7.04145 15.4548 6.8431 15.5209 6.8431C15.7523 6.8431 15.8681 6.9588 15.8681 7.19021ZM33.4221 3.2232C33.4221 2.89261 33.3229 2.62815 33.1246 2.4298C32.9262 2.19839 32.5956 2.08268 32.1328 2.08268C31.3725 2.08268 30.6452 2.34715 29.951 2.87609C29.2898 3.37196 28.6782 4.00007 28.1162 4.76042C27.5542 5.4877 27.0583 6.26458 26.6286 7.09104C26.2319 7.9175 25.9509 8.62826 25.7856 9.22331C26.8765 9.12413 27.8848 8.87619 28.8104 8.47949C29.7691 8.08279 30.5791 7.60344 31.2402 7.04145C31.9345 6.4464 32.4634 5.81829 32.827 5.15712C33.2237 4.49595 33.4221 3.85131 33.4221 3.2232Z" fill="white"/>
<path d="M36.562 36.0998C35.9339 36.0998 35.4049 35.9676 34.9752 35.7031C34.5785 35.4387 34.2644 35.1081 34.033 34.7114C33.8016 34.2816 33.6363 33.8023 33.5371 33.2733C33.471 32.7113 33.438 32.1493 33.438 31.5873C33.438 31.1906 33.4545 30.8105 33.4876 30.4468C33.5537 30.0501 33.6198 29.6534 33.6859 29.2567C33.6198 29.2567 33.5702 29.2898 33.5371 29.3559C33.5041 29.389 33.4545 29.4055 33.3884 29.4055C33.2562 29.4055 33.19 29.3228 33.19 29.1576C33.19 29.0584 33.2396 28.9592 33.3388 28.86C33.438 28.7609 33.6529 28.5129 33.9834 28.1162C34.6446 27.2897 35.3884 26.5294 36.2149 25.8352C37.0413 25.1409 37.8843 24.5294 38.7439 24.0004C39.6364 23.4715 40.529 23.0583 41.4216 22.7607C42.3472 22.4632 43.2398 22.3145 44.0993 22.3145C44.8597 22.3145 45.4051 22.5624 45.7357 23.0583C46.0663 23.5211 46.2316 24.0831 46.2316 24.7442C46.2316 25.3393 46.182 25.7856 46.0828 26.0831L46.182 26.1823C46.6118 25.4881 46.9423 24.9095 47.1738 24.4467C47.4382 23.9839 47.6531 23.6368 47.8184 23.4054C47.9837 23.1409 48.1325 22.9591 48.2647 22.8599C48.43 22.7277 48.6449 22.6616 48.9093 22.6616L51.2895 22.5624C51.0581 22.8269 50.711 23.2897 50.2482 23.9508C49.8184 24.579 49.3391 25.3062 48.8102 26.1327C48.2812 26.9261 47.7358 27.7691 47.1738 28.6617C46.6448 29.5543 46.1489 30.4138 45.6861 31.2402C45.2233 32.0667 44.8431 32.794 44.5456 33.4221C44.2811 34.0502 44.1489 34.513 44.1489 34.8105C44.1489 35.2734 44.4299 35.5048 44.9919 35.5048C45.7522 35.5048 46.744 34.9428 47.9672 33.8188C49.2234 32.6617 50.5788 31.2402 52.0334 29.5543C52.3309 29.1906 52.5127 28.9757 52.5788 28.9096C52.6449 28.8104 52.711 28.7609 52.7772 28.7609C52.8763 28.7609 52.9425 28.7939 52.9755 28.86C53.0416 28.9261 53.0747 28.9923 53.0747 29.0584C53.0747 29.0914 52.9755 29.2237 52.7772 29.4551C52.6119 29.6534 52.397 29.9014 52.1325 30.1989C51.8681 30.4964 51.5705 30.827 51.2399 31.1906C50.9424 31.5543 50.6449 31.8849 50.3474 32.1824C49.1903 33.3725 48.149 34.3312 47.2233 35.0585C46.2977 35.7527 45.5043 36.0998 44.8431 36.0998C44.182 36.0998 43.653 35.8684 43.2563 35.4056C42.8596 34.9428 42.6613 34.0337 42.6613 32.6783C42.6613 32.513 42.6613 32.3642 42.6613 32.232C42.6943 32.0667 42.7109 31.9179 42.7109 31.7857C42.3472 32.1493 41.9009 32.5791 41.372 33.075C40.8761 33.5709 40.3472 34.0502 39.7852 34.513C39.2232 34.9428 38.6612 35.323 38.0992 35.6535C37.5372 35.9511 37.0248 36.0998 36.562 36.0998ZM35.4215 33.918C35.4215 34.3808 35.5041 34.761 35.6694 35.0585C35.8678 35.356 36.1653 35.5048 36.562 35.5048C37.2893 35.5048 38.1653 35.1246 39.1901 34.3643C40.215 33.5709 41.2067 32.6122 42.1654 31.4882C43.1241 30.3642 43.934 29.1906 44.5952 27.9674C45.2894 26.7112 45.6365 25.6203 45.6365 24.6947C45.6365 24.1988 45.5043 23.7856 45.2398 23.455C45.0084 23.0913 44.6283 22.9095 44.0993 22.9095C43.1076 22.9095 42.0828 23.3227 41.0249 24.1492C40.0001 24.9426 39.0744 25.9178 38.248 27.0749C37.4215 28.2319 36.7438 29.4385 36.2149 30.6948C35.6859 31.951 35.4215 33.0254 35.4215 33.918Z" fill="white"/>
<path d="M71.5546 6.24805C68.3149 11.339 65.6041 15.5871 63.4222 18.9921C61.2734 22.3971 59.5213 25.1905 58.1659 27.3724C56.8436 29.5212 55.9014 31.1741 55.3394 32.3312C54.7775 33.4552 54.4965 34.2981 54.4965 34.8601C54.4965 35.0254 54.5626 35.1742 54.6948 35.3064C54.8601 35.4387 55.0584 35.5048 55.2899 35.5048C56.0502 35.5048 56.8767 35.1907 57.7692 34.5626C58.6949 33.9345 59.7858 32.9923 61.042 31.7361C62.166 30.6121 62.8768 29.8353 63.1743 29.4055C63.5049 28.9427 63.7363 28.7113 63.8685 28.7113C64.0338 28.7113 64.1165 28.7939 64.1165 28.9592C64.1165 28.9923 64.0503 29.0914 63.9181 29.2567C63.7859 29.422 63.6206 29.6204 63.4222 29.8518C63.2239 30.0832 63.009 30.3146 62.7776 30.546C62.5792 30.7774 62.3974 30.9923 62.2321 31.1906C60.7776 32.7444 59.4718 33.951 58.3147 34.8105C57.1577 35.6701 56.0998 36.0998 55.1411 36.0998C54.2816 36.0998 53.7031 35.8519 53.4055 35.356C53.1411 34.8601 53.0088 34.2816 53.0088 33.6204C53.0088 32.8932 53.108 32.232 53.3064 31.6369C53.5047 31.0088 53.8188 30.3477 54.2485 29.6534C54.6783 28.9261 55.2072 28.0997 55.8353 27.174C56.4634 26.2153 57.2072 25.0252 58.0668 23.6037L57.9676 23.5046C57.5378 24.0004 57.0915 24.5294 56.6287 25.0914C56.1659 25.6534 55.5213 26.3806 54.6948 27.2732C54.232 27.8022 53.8518 28.2319 53.5543 28.5625C53.2898 28.86 53.0749 29.108 52.9097 29.3063C52.7444 29.4716 52.6287 29.5873 52.5625 29.6534C52.4964 29.6865 52.4303 29.703 52.3642 29.703C52.232 29.703 52.1658 29.6204 52.1658 29.4551C52.1658 29.3559 52.4634 28.9757 53.0584 28.3146C53.6865 27.6534 54.4799 26.7608 55.4386 25.6368C56.4304 24.4798 57.5213 23.1244 58.7114 21.5706C59.9346 19.9838 61.1412 18.2317 62.3313 16.3143L68.2818 6.59516L71.5546 6.24805Z" fill="white"/>
<path d="M76.3487 24.6947C76.3487 25.6203 75.952 26.4633 75.1586 27.2236C74.3652 27.9509 73.4231 28.5956 72.3321 29.1576C71.2412 29.6865 70.1172 30.1328 68.9602 30.4964C67.8031 30.8601 66.861 31.108 66.1337 31.2402C66.0676 31.5047 66.018 31.7857 65.9849 32.0832C65.9519 32.3477 65.9353 32.6122 65.9353 32.8766C65.9353 33.8353 66.0841 34.513 66.3816 34.9097C66.7122 35.2734 67.2577 35.4717 68.018 35.5048C68.6792 35.5378 69.6213 35.2734 70.8445 34.7114C72.0677 34.1163 73.4396 33.075 74.9603 31.5873C75.919 30.5956 76.5636 29.8683 76.8942 29.4055C77.2578 28.9427 77.4893 28.7113 77.5884 28.7113C77.7537 28.7113 77.8364 28.8104 77.8364 29.0088C77.8364 29.0749 77.7207 29.2402 77.4893 29.5047C77.2909 29.7691 77.0264 30.0997 76.6959 30.4964C76.3653 30.8601 75.9851 31.2568 75.5553 31.6865C75.1586 32.1163 74.7785 32.4965 74.4148 32.827C73.1586 33.9841 72.0015 34.8105 70.9437 35.3064C69.9189 35.8023 68.8279 36.0668 67.6709 36.0998C66.9767 36.0998 66.3816 35.9511 65.8857 35.6535C65.4229 35.356 65.0262 34.9593 64.6956 34.4634C64.3651 33.9676 64.1171 33.4056 63.9518 32.7775C63.8196 32.1493 63.7535 31.5047 63.7535 30.8435C63.7535 30.4799 63.77 30.1658 63.8031 29.9014C63.8692 29.6369 63.9022 29.4716 63.9022 29.4055C63.9022 29.3724 63.8857 29.3394 63.8526 29.3063C63.7535 29.4055 63.7039 29.4551 63.7039 29.4551C63.6708 29.4551 63.6212 29.422 63.5551 29.3559C63.489 29.2898 63.4559 29.2237 63.4559 29.1576C63.4559 29.1245 63.5221 29.0088 63.6543 28.8104C63.8196 28.6121 64.0014 28.3972 64.1998 28.1658C64.4312 27.9344 64.646 27.7195 64.8444 27.5212C65.0428 27.2897 65.1915 27.1245 65.2907 27.0253C66.6791 25.6368 68.1172 24.5128 69.6048 23.6533C71.0924 22.7607 72.514 22.3145 73.8694 22.3145C74.6297 22.3145 75.2247 22.5459 75.6545 23.0087C76.1173 23.4384 76.3487 24.0004 76.3487 24.6947ZM73.8694 22.9095C73.2082 22.9095 72.4809 23.1905 71.6875 23.7525C70.8941 24.2814 70.1172 24.9426 69.3569 25.736C68.6296 26.5294 67.9849 27.3724 67.423 28.265C66.861 29.1576 66.4973 29.951 66.332 30.6452C67.1585 30.546 68.0676 30.3146 69.0593 29.951C70.0511 29.5543 70.9767 29.0584 71.8363 28.4633C72.6958 27.8352 73.4065 27.141 73.9685 26.3806C74.5636 25.5872 74.8611 24.7442 74.8611 23.8517C74.8611 23.2236 74.5305 22.9095 73.8694 22.9095Z" fill="white"/>
<path d="M78.001 36.0998C78.1663 35.8023 78.4638 35.323 78.8936 34.6618C79.3564 34.0006 79.8854 33.2568 80.4804 32.4303C81.0755 31.5708 81.687 30.6782 82.3151 29.7526C82.9763 28.827 83.5714 27.9674 84.1003 27.174C84.6292 26.3476 85.059 25.6203 85.3896 24.9922C85.7532 24.3641 85.935 23.9178 85.935 23.6533C85.935 23.3889 85.8524 23.207 85.6871 23.1079C85.5549 22.9756 85.3896 22.9095 85.1912 22.9095C84.497 22.9095 83.7532 23.207 82.9598 23.8021C82.1994 24.3641 81.1912 25.3393 79.9349 26.7278C79.3399 27.3559 78.8771 27.8517 78.5465 28.2154C78.249 28.579 78.0175 28.86 77.8523 29.0584C77.72 29.2237 77.6208 29.3394 77.5547 29.4055C77.5217 29.4385 77.4886 29.4551 77.4556 29.4551C77.2903 29.4551 77.2076 29.3559 77.2076 29.1576C77.2076 29.1245 77.2737 29.0253 77.406 28.86C77.5382 28.6617 77.7035 28.4633 77.9018 28.265C78.1002 28.0336 78.2985 27.8022 78.4969 27.5707C78.7283 27.3063 78.9267 27.0749 79.0919 26.8765C80.282 25.4881 81.3895 24.3806 82.4143 23.5541C83.4391 22.7277 84.4309 22.3145 85.3896 22.3145C86.0508 22.3145 86.5136 22.5293 86.778 22.9591C87.0756 23.3889 87.2243 23.9839 87.2243 24.7442C87.2243 25.2401 87.1086 25.7856 86.8772 26.3806C86.6458 26.9426 86.3648 27.5046 86.0342 28.0666C85.7367 28.6286 85.4061 29.1741 85.0425 29.703C84.6788 30.1989 84.3648 30.6287 84.1003 30.9923L84.1995 31.0915C84.6954 30.6287 85.3731 29.9179 86.2326 28.9592C87.1252 27.9674 88.0673 26.9922 89.0591 26.0335C90.0508 25.0418 91.026 24.1823 91.9847 23.455C92.9434 22.6946 93.7368 22.3145 94.365 22.3145C94.9931 22.3145 95.4394 22.5789 95.7038 23.1079C96.0013 23.6037 96.1501 24.1161 96.1501 24.6451C96.1501 25.5046 95.9518 26.298 95.5551 27.0253C95.1583 27.7195 94.7451 28.3476 94.3154 28.9096C92.1004 31.9179 90.993 33.7857 90.993 34.513C90.993 34.7775 91.0591 35.0089 91.1913 35.2072C91.3236 35.4056 91.5219 35.5048 91.7864 35.5048C92.3484 35.5048 93.1087 35.1246 94.0674 34.3643C95.0261 33.5709 96.0179 32.6287 97.0427 31.5378C97.6708 30.8766 98.1501 30.3642 98.4807 30.0005C98.8113 29.6038 99.0427 29.3228 99.1749 29.1576C99.3402 28.9592 99.4394 28.8435 99.4725 28.8104C99.5386 28.7443 99.6047 28.7113 99.6708 28.7113C99.8031 28.7113 99.8692 28.7939 99.8692 28.9592C99.8692 29.0253 99.7369 29.2237 99.4725 29.5543C99.208 29.8848 98.894 30.2485 98.5303 30.6452C98.1997 31.0419 97.8526 31.4221 97.489 31.7857C97.1584 32.1493 96.9104 32.4138 96.7452 32.5791C95.6542 33.67 94.679 34.5295 93.8195 35.1577C92.96 35.7858 92.2492 36.0998 91.6872 36.0998C90.9269 36.0998 90.3649 35.8023 90.0012 35.2072C89.6706 34.5791 89.5054 33.8188 89.5054 32.9262C89.5054 31.9345 89.7864 30.9592 90.3483 30.0005C90.9103 29.0088 91.5219 28.0997 92.1831 27.2732C92.8443 26.4137 93.4558 25.6534 94.0178 24.9922C94.5798 24.331 94.8608 23.8351 94.8608 23.5046C94.8608 23.1079 94.6294 22.9095 94.1666 22.9095C93.7699 22.9095 93.2079 23.174 92.4806 23.7029C91.7533 24.2318 90.9599 24.9095 90.1004 25.736C89.2409 26.5625 88.3483 27.4881 87.4227 28.5129C86.497 29.5047 85.621 30.4799 84.7945 31.4386C83.9681 32.3973 83.2408 33.2733 82.6127 34.0667C81.9846 34.8271 81.5548 35.4056 81.3234 35.8023L78.001 36.0998Z" fill="white"/>
<path d="M111.093 13.0911L114.167 12.8928L110.944 17.8516H116.746C116.911 17.8516 116.994 17.9507 116.994 18.1491C116.994 18.3474 116.911 18.4466 116.746 18.4466H110.597C110.332 18.9094 109.919 19.5871 109.357 20.4797C108.795 21.3392 108.167 22.3145 107.473 23.4054C106.779 24.4633 106.051 25.5872 105.291 26.7773C104.564 27.9674 103.886 29.0914 103.258 30.1493C102.663 31.1741 102.167 32.1163 101.77 32.9758C101.373 33.8023 101.175 34.3973 101.175 34.761C101.175 35.2568 101.489 35.5048 102.117 35.5048C102.878 35.5048 103.688 35.2072 104.547 34.6122C105.44 33.9841 106.448 33.108 107.572 31.984C108.2 31.3559 108.696 30.8435 109.06 30.4468C109.456 30.0171 109.754 29.6865 109.952 29.4551C110.184 29.1906 110.332 29.0088 110.398 28.9096C110.498 28.7774 110.58 28.7113 110.646 28.7113C110.812 28.7113 110.894 28.8104 110.894 29.0088C110.894 29.0418 110.795 29.1741 110.597 29.4055C110.431 29.6369 110.217 29.9014 109.952 30.1989C109.688 30.4964 109.39 30.8105 109.06 31.1411C108.762 31.4716 108.481 31.7692 108.217 32.0336C106.696 33.5543 105.456 34.6122 104.497 35.2072C103.539 35.8023 102.712 36.0998 102.018 36.0998C101.159 36.0668 100.547 35.8023 100.183 35.3064C99.8528 34.7775 99.6875 34.232 99.6875 33.67C99.6875 32.9758 99.7867 32.2981 99.985 31.6369C100.183 30.9427 100.481 30.232 100.878 29.5047C101.274 28.7443 101.754 27.9509 102.316 27.1245C102.911 26.2649 103.572 25.3062 104.299 24.2484L104.2 24.1492C103.737 24.7112 103.274 25.2401 102.812 25.736C102.382 26.2319 101.836 26.86 101.175 27.6203C101.076 27.7526 100.911 27.9344 100.679 28.1658C100.481 28.3972 100.283 28.6286 100.084 28.86C99.8858 29.0914 99.704 29.3063 99.5387 29.5047C99.3734 29.67 99.2743 29.7526 99.2412 29.7526C99.0759 29.7526 98.9933 29.6865 98.9933 29.5543C98.9933 29.5212 99.0098 29.4716 99.0428 29.4055C99.0759 29.3063 99.1586 29.1741 99.2908 29.0088C99.4561 28.8435 99.671 28.6121 99.9354 28.3146C100.233 27.984 100.63 27.5377 101.126 26.9757C101.489 26.579 101.935 26.0666 102.464 25.4385C103.026 24.8104 103.605 24.1161 104.2 23.3558C104.828 22.5955 105.456 21.802 106.084 20.9756C106.745 20.1161 107.357 19.2731 107.919 18.4466H106.134C105.969 18.4466 105.886 18.3474 105.886 18.1491C105.886 17.9507 105.952 17.8516 106.084 17.8516H108.167L111.093 13.0911Z" fill="white"/>
<path d="M113.159 36.0998C112.399 36.0998 111.804 35.8684 111.374 35.4056C110.978 34.9097 110.779 34.2816 110.779 33.5213C110.779 32.6948 110.945 31.8683 111.275 31.0419C111.606 30.2154 112.002 29.4055 112.465 28.6121C112.961 27.8187 113.474 27.0583 114.002 26.3311C114.564 25.6038 115.06 24.9261 115.49 24.298L115.391 24.1988C115.093 24.4963 114.614 24.9922 113.953 25.6864C113.292 26.3806 112.366 27.4055 111.176 28.7609C110.911 29.0584 110.746 29.2402 110.68 29.3063C110.614 29.3724 110.548 29.4055 110.482 29.4055C110.349 29.4055 110.283 29.3063 110.283 29.108C110.283 29.0418 110.366 28.9261 110.531 28.7609C110.697 28.5625 111.11 28.0832 111.771 27.3228C112.102 26.9592 112.465 26.5625 112.862 26.1327C113.292 25.6699 113.705 25.2236 114.102 24.7938C114.498 24.331 114.862 23.9013 115.193 23.5046C115.556 23.1079 115.837 22.7773 116.036 22.5128L119.16 22.3145C117.672 24.7608 116.465 26.7278 115.54 28.2154C114.647 29.67 113.953 30.827 113.457 31.6865C112.994 32.513 112.68 33.1246 112.515 33.5213C112.35 33.8849 112.267 34.199 112.267 34.4634C112.267 34.8932 112.366 35.1742 112.564 35.3064C112.763 35.4387 112.978 35.5048 113.209 35.5048C113.606 35.5048 114.035 35.3891 114.498 35.1577C114.961 34.9263 115.44 34.6453 115.936 34.3147C116.432 33.951 116.912 33.5543 117.374 33.1246C117.87 32.6948 118.317 32.265 118.713 31.8353C119.044 31.5047 119.374 31.1576 119.705 30.7939C120.069 30.3972 120.383 30.0336 120.647 29.703C120.945 29.3724 121.193 29.108 121.391 28.9096C121.589 28.6782 121.705 28.5625 121.738 28.5625C121.936 28.5625 122.036 28.6451 122.036 28.8104C122.036 28.8766 121.788 29.2071 121.292 29.8022C120.829 30.3642 120.069 31.1906 119.011 32.2816C116.564 34.8271 114.614 36.0998 113.159 36.0998ZM120.895 14.4796C120.895 14.0498 121.044 13.6366 121.341 13.2399C121.639 12.8101 122.069 12.5953 122.631 12.5953C122.994 12.5953 123.275 12.7275 123.474 12.992C123.672 13.2234 123.771 13.5209 123.771 13.8845C123.771 14.3143 123.622 14.7441 123.325 15.1738C123.027 15.5705 122.598 15.7689 122.036 15.7689C121.672 15.7689 121.391 15.6532 121.193 15.4218C120.994 15.1573 120.895 14.8432 120.895 14.4796Z" fill="white"/>
<path d="M122.02 36.0998C122.185 35.8023 122.483 35.323 122.912 34.6618C123.375 34.0006 123.904 33.2568 124.499 32.4303C125.094 31.5708 125.706 30.6782 126.334 29.7526C126.995 28.827 127.59 27.9674 128.119 27.174C128.648 26.3476 129.078 25.6203 129.408 24.9922C129.772 24.3641 129.954 23.9178 129.954 23.6533C129.954 23.3889 129.871 23.207 129.706 23.1079C129.574 22.9756 129.408 22.9095 129.21 22.9095C128.516 22.9095 127.772 23.207 126.979 23.8021C126.218 24.3641 125.21 25.3393 123.954 26.7278C123.359 27.3559 122.896 27.8517 122.565 28.2154C122.268 28.579 122.036 28.86 121.871 29.0584C121.739 29.2237 121.64 29.3394 121.573 29.4055C121.54 29.4385 121.507 29.4551 121.474 29.4551C121.309 29.4551 121.226 29.3559 121.226 29.1576C121.226 29.1245 121.292 29.0253 121.425 28.86C121.557 28.6617 121.722 28.4633 121.921 28.265C122.119 28.0336 122.317 27.8022 122.516 27.5707C122.747 27.3063 122.945 27.0749 123.111 26.8765C124.301 25.4881 125.408 24.3806 126.433 23.5541C127.458 22.7277 128.45 22.3145 129.408 22.3145C130.07 22.3145 130.532 22.5293 130.797 22.9591C131.094 23.3889 131.243 23.9839 131.243 24.7442C131.243 25.2401 131.127 25.7856 130.896 26.3806C130.665 26.9426 130.384 27.5046 130.053 28.0666C129.755 28.6286 129.425 29.1741 129.061 29.703C128.698 30.1989 128.384 30.6287 128.119 30.9923L128.218 31.0915C128.714 30.6287 129.392 29.9179 130.251 28.9592C131.144 27.9674 132.086 26.9922 133.078 26.0335C134.07 25.0418 135.045 24.1823 136.003 23.455C136.962 22.6946 137.756 22.3145 138.384 22.3145C139.012 22.3145 139.458 22.5789 139.723 23.1079C140.02 23.6037 140.169 24.1161 140.169 24.6451C140.169 25.5046 139.971 26.298 139.574 27.0253C139.177 27.7195 138.764 28.3476 138.334 28.9096C136.119 31.9179 135.012 33.7857 135.012 34.513C135.012 34.7775 135.078 35.0089 135.21 35.2072C135.342 35.4056 135.541 35.5048 135.805 35.5048C136.367 35.5048 137.127 35.1246 138.086 34.3643C139.045 33.5709 140.037 32.6287 141.061 31.5378C141.69 30.8766 142.169 30.3642 142.499 30.0005C142.83 29.6038 143.061 29.3228 143.194 29.1576C143.359 28.9592 143.458 28.8435 143.491 28.8104C143.557 28.7443 143.623 28.7113 143.69 28.7113C143.822 28.7113 143.888 28.7939 143.888 28.9592C143.888 29.0253 143.756 29.2237 143.491 29.5543C143.227 29.8848 142.913 30.2485 142.549 30.6452C142.218 31.0419 141.871 31.4221 141.508 31.7857C141.177 32.1493 140.929 32.4138 140.764 32.5791C139.673 33.67 138.698 34.5295 137.838 35.1577C136.979 35.7858 136.268 36.0998 135.706 36.0998C134.946 36.0998 134.384 35.8023 134.02 35.2072C133.689 34.5791 133.524 33.8188 133.524 32.9262C133.524 31.9345 133.805 30.9592 134.367 30.0005C134.929 29.0088 135.541 28.0997 136.202 27.2732C136.863 26.4137 137.475 25.6534 138.037 24.9922C138.599 24.331 138.88 23.8351 138.88 23.5046C138.88 23.1079 138.648 22.9095 138.185 22.9095C137.789 22.9095 137.227 23.174 136.499 23.7029C135.772 24.2318 134.979 24.9095 134.119 25.736C133.26 26.5625 132.367 27.4881 131.441 28.5129C130.516 29.5047 129.64 30.4799 128.813 31.4386C127.987 32.3973 127.26 33.2733 126.631 34.0667C126.003 34.8271 125.574 35.4056 125.342 35.8023L122.02 36.0998Z" fill="white"/>
<path d="M157.095 25.736C157.095 26.2319 157.012 26.7773 156.847 27.3724C156.682 27.9344 156.45 28.4964 156.153 29.0584C155.888 29.5873 155.574 30.1162 155.211 30.6452C154.88 31.1411 154.533 31.5708 154.169 31.9345C154.301 32.0006 154.483 32.0336 154.715 32.0336C155.574 32.0336 156.401 31.8188 157.194 31.389C157.987 30.9262 158.698 30.3311 159.326 29.6038C159.657 29.2402 159.855 29.0088 159.921 28.9096C160.021 28.8104 160.103 28.7609 160.169 28.7609C160.335 28.7609 160.417 28.8435 160.417 29.0088C160.417 29.0749 160.351 29.1906 160.219 29.3559C160.087 29.5212 159.74 29.9014 159.178 30.4964C158.549 31.1576 157.806 31.6865 156.946 32.0832C156.12 32.4469 155.227 32.6287 154.268 32.6287C153.938 32.6287 153.723 32.6122 153.624 32.5791C152.863 33.4386 151.954 34.2486 150.896 35.0089C149.872 35.7362 148.665 36.0998 147.277 36.0998C146.285 36.0998 145.524 35.7031 144.996 34.9097C144.467 34.1163 144.202 33.0419 144.202 31.6865C144.202 30.7939 144.235 30.1824 144.301 29.8518C144.4 29.5212 144.45 29.2733 144.45 29.108C144.45 28.9096 144.4 28.8104 144.301 28.8104C144.103 28.8104 143.921 28.9427 143.756 29.2071C143.591 29.4716 143.475 29.6038 143.409 29.6038C143.21 29.6038 143.111 29.5212 143.111 29.3559C143.111 29.2898 143.194 29.141 143.359 28.9096C143.557 28.6782 143.805 28.4137 144.103 28.1162C144.4 27.8187 144.715 27.5046 145.045 27.174C145.376 26.8435 145.69 26.5294 145.987 26.2319C147.442 24.8434 148.88 23.8517 150.301 23.2566C151.723 22.6285 152.996 22.3145 154.12 22.3145C155.078 22.3145 155.806 22.645 156.301 23.3062C156.83 23.9343 157.095 24.7442 157.095 25.736ZM156.004 25.1409C156.004 24.5459 155.872 24.0335 155.607 23.6037C155.343 23.1409 154.897 22.9095 154.268 22.9095C153.409 22.9095 152.5 23.2731 151.541 24.0004C150.582 24.7277 149.706 25.6368 148.913 26.7278C148.12 27.8187 147.458 28.9923 146.929 30.2485C146.434 31.5047 146.186 32.6452 146.186 33.67C146.186 34.3643 146.301 34.8436 146.533 35.1081C146.797 35.3725 147.111 35.5048 147.475 35.5048C148.467 35.5048 149.458 35.1742 150.45 34.513C151.475 33.8519 152.384 33.0254 153.177 32.0336C154.004 31.0088 154.682 29.8848 155.211 28.6617C155.74 27.4385 156.004 26.2649 156.004 25.1409Z" fill="white"/>
<path d="M207.295 18.0499C208.22 18.2483 209.08 18.5788 209.873 19.0417C210.7 19.4714 211.41 20.0004 212.005 20.6285C212.634 21.2566 213.129 21.9839 213.493 22.8103C213.857 23.6368 214.039 24.5459 214.039 25.5377C214.039 27.0253 213.658 28.4303 212.898 29.7526C212.138 31.0419 211.162 32.1824 209.972 33.1742C208.815 34.1659 207.51 34.9593 206.055 35.5544C204.6 36.1164 203.179 36.3974 201.79 36.3974C201.03 36.3974 200.303 36.2816 199.609 36.0502C198.947 35.8188 198.352 35.5048 197.823 35.1081C197.294 34.6783 196.865 34.1659 196.534 33.5709C196.237 32.9758 196.088 32.2981 196.088 31.5378C196.088 30.3807 196.369 29.3394 196.931 28.4137C197.526 27.455 198.121 26.6782 198.716 26.0831C198.947 25.8517 199.212 25.6038 199.509 25.3393C199.807 25.0748 200.088 24.8434 200.352 24.6451C200.617 24.4137 200.848 24.2318 201.047 24.0996C201.245 23.9674 201.361 23.9013 201.394 23.9013C201.559 23.9013 201.642 24.0004 201.642 24.1988C201.642 24.298 201.427 24.4963 200.997 24.7938C200.6 25.0583 200.022 25.5542 199.261 26.2815C198.501 27.0088 197.873 27.8352 197.377 28.7609C196.914 29.6865 196.683 30.546 196.683 31.3394C196.683 32.7279 197.129 33.8188 198.022 34.6122C198.947 35.4056 200.088 35.8023 201.443 35.8023C202.832 35.8023 204.088 35.4552 205.212 34.761C206.369 34.0337 207.361 33.108 208.187 31.984C209.047 30.8601 209.708 29.6369 210.171 28.3146C210.634 26.9922 210.865 25.7029 210.865 24.4467C210.865 23.3227 210.733 22.3806 210.468 21.6202C210.204 20.8599 209.873 20.2483 209.477 19.7855C209.08 19.2896 208.634 18.9425 208.138 18.7441C207.642 18.5458 207.146 18.4466 206.65 18.4466C206.253 18.4466 205.939 18.4797 205.708 18.5458C205.51 18.6119 205.295 18.678 205.063 18.7441C204.865 18.8103 204.617 18.8764 204.319 18.9425C204.055 19.0086 203.675 19.0417 203.179 19.0417C202.551 19.0417 202.237 18.8103 202.237 18.3474C202.237 18.083 202.369 17.8846 202.633 17.7524C202.931 17.6202 203.443 17.554 204.171 17.554C204.667 17.554 205.03 17.5706 205.262 17.6036C205.526 17.6367 205.757 17.6532 205.956 17.6532C206.948 17.6532 207.857 17.3722 208.683 16.8102C209.51 16.2482 210.204 15.554 210.766 14.7275C211.328 13.868 211.758 12.9424 212.055 11.9506C212.386 10.9589 212.551 10.0167 212.551 9.12413C212.551 7.86791 212.369 6.8431 212.005 6.0497C211.642 5.25629 211.03 4.59512 210.171 4.06619C208.65 5.091 207.295 6.36375 206.105 7.88444C204.914 9.37207 203.824 10.9589 202.832 12.6449C201.84 14.3308 200.898 16.0333 200.005 17.7524C199.113 19.4714 198.204 21.0748 197.278 22.5624C196.286 24.1492 195.129 25.7691 193.807 27.422C192.484 29.0749 191.03 30.5625 189.443 31.8849C187.856 33.2072 186.137 34.2981 184.286 35.1577C182.468 35.9841 180.534 36.3974 178.484 36.3974C177.625 36.3974 176.831 36.2982 176.104 36.0998C175.377 35.8684 174.732 35.5544 174.17 35.1577C173.641 34.761 173.228 34.3147 172.93 33.8188C172.633 33.2899 172.484 32.7279 172.484 32.1328C172.484 31.5708 172.682 31.108 173.079 30.7444C173.476 30.3477 173.955 30.1493 174.517 30.1493C175.74 30.1493 176.352 30.7444 176.352 31.9345C176.352 32.265 176.269 32.5791 176.104 32.8766C175.939 33.1411 175.856 33.4056 175.856 33.67C175.856 34.232 176.071 34.7279 176.501 35.1577C176.93 35.5874 177.674 35.8023 178.732 35.8023C180.055 35.8023 181.36 35.5874 182.65 35.1577C183.939 34.7279 185.212 33.9841 186.468 32.9262C187.724 31.8683 188.997 30.4634 190.286 28.7113C191.608 26.9261 192.964 24.6781 194.352 21.9673C195.443 19.8516 196.518 17.9177 197.575 16.1656C198.666 14.4135 199.807 12.7936 200.997 11.306C202.22 9.81836 203.526 8.44643 204.914 7.19021C206.303 5.93399 207.824 4.76042 209.477 3.66949C208.022 3.00832 206.485 2.5455 204.865 2.28103C203.245 2.01656 201.625 1.88433 200.005 1.88433C198.154 1.88433 196.253 2.11574 194.303 2.57856C195.063 3.27279 195.609 4.18189 195.939 5.30588C196.303 6.42987 196.485 7.48774 196.485 8.47949C196.485 10.2646 196.071 12.0829 195.245 13.9341C194.451 15.7854 193.377 17.4549 192.022 18.9425C190.666 20.4301 189.096 21.6533 187.311 22.612C185.526 23.5376 183.658 24.0004 181.707 24.0004C180.22 24.0004 178.947 23.5541 177.889 22.6616C176.864 21.769 176.352 20.4467 176.352 18.6946C176.352 16.8102 176.881 14.992 177.939 13.2399C179.03 11.4548 180.402 9.83489 182.055 8.38032C183.707 6.89269 185.509 5.63647 187.46 4.61165C189.443 3.55378 191.327 2.80997 193.113 2.38021C192.319 1.7521 191.443 1.30581 190.484 1.04134C189.526 0.743816 188.551 0.595053 187.559 0.595053C186.236 0.595053 184.964 0.793403 183.741 1.1901C182.55 1.55375 181.426 2.04962 180.369 2.67774C179.344 3.27279 178.418 3.95049 177.592 4.71083C176.765 5.47117 176.087 6.24805 175.559 7.04145C174.798 8.13238 174.22 9.04149 173.823 9.76877C173.459 10.463 173.195 11.025 173.03 11.4548C172.864 11.8515 172.765 12.1325 172.732 12.2977C172.699 12.43 172.633 12.4961 172.534 12.4961C172.368 12.4961 172.286 12.4134 172.286 12.2482C172.286 12.1159 172.484 11.5539 172.881 10.5622C173.311 9.53736 174.038 8.3142 175.063 6.89269C175.724 5.96705 176.501 5.091 177.393 4.26454C178.319 3.40502 179.311 2.66121 180.369 2.03309C181.459 1.40498 182.617 0.909108 183.84 0.545466C185.063 0.181822 186.319 0 187.608 0C188.732 0 189.823 0.181822 190.881 0.545466C191.972 0.909108 192.947 1.43804 193.807 2.13227C194.898 1.8678 195.972 1.66945 197.03 1.53722C198.088 1.37193 199.146 1.28928 200.204 1.28928C203.708 1.28928 207.047 1.93392 210.22 3.2232C210.782 2.92567 211.361 2.61162 211.956 2.28103C212.584 1.95045 213.163 1.78516 213.691 1.78516C213.824 1.78516 213.89 1.85127 213.89 1.98351C213.89 2.04962 213.824 2.11574 213.691 2.18186C213.559 2.21492 213.361 2.28103 213.096 2.38021C212.865 2.44633 212.567 2.57856 212.204 2.77691C211.84 2.9422 211.41 3.19014 210.915 3.52073C212.27 4.21495 213.361 5.12406 214.187 6.24805C215.014 7.37203 215.427 8.67784 215.427 10.1655C215.427 11.2233 215.179 12.182 214.683 13.0416C214.187 13.9011 213.543 14.6614 212.749 15.3226C211.956 15.9838 211.08 16.5292 210.121 16.959C209.162 17.3887 208.22 17.7193 207.295 17.9507V18.0499ZM177.145 18.8433C177.145 20.1657 177.509 21.2235 178.236 22.0169C178.997 22.8103 180.137 23.207 181.658 23.207C183.278 23.207 184.881 22.6781 186.468 21.6202C188.055 20.5293 189.476 19.207 190.732 17.6532C192.022 16.0664 193.046 14.3804 193.807 12.5953C194.6 10.8101 194.997 9.19025 194.997 7.73568C194.997 6.54557 194.865 5.53729 194.6 4.71083C194.369 3.88437 194.038 3.23973 193.608 2.77691C191.956 3.17361 190.17 3.83478 188.253 4.76042C186.336 5.68605 184.55 6.8431 182.898 8.23155C181.245 9.62001 179.873 11.2068 178.782 12.992C177.691 14.7771 177.145 16.7276 177.145 18.8433Z" fill="white"/>
<path d="M230.072 25.736C230.072 26.2319 229.989 26.7773 229.824 27.3724C229.659 27.9344 229.427 28.4964 229.13 29.0584C228.865 29.5873 228.551 30.1162 228.188 30.6452C227.857 31.1411 227.51 31.5708 227.146 31.9345C227.279 32.0006 227.46 32.0336 227.692 32.0336C228.551 32.0336 229.378 31.8188 230.171 31.389C230.965 30.9262 231.675 30.3311 232.304 29.6038C232.634 29.2402 232.832 29.0088 232.899 28.9096C232.998 28.8104 233.08 28.7609 233.147 28.7609C233.312 28.7609 233.394 28.8435 233.394 29.0088C233.394 29.0749 233.328 29.1906 233.196 29.3559C233.064 29.5212 232.717 29.9014 232.155 30.4964C231.527 31.1576 230.783 31.6865 229.923 32.0832C229.097 32.4469 228.204 32.6287 227.246 32.6287C226.915 32.6287 226.7 32.6122 226.601 32.5791C225.841 33.4386 224.931 34.2486 223.874 35.0089C222.849 35.7362 221.642 36.0998 220.254 36.0998C219.262 36.0998 218.502 35.7031 217.973 34.9097C217.444 34.1163 217.179 33.0419 217.179 31.6865C217.179 30.7939 217.212 30.1824 217.278 29.8518C217.378 29.5212 217.427 29.2733 217.427 29.108C217.427 28.9096 217.378 28.8104 217.278 28.8104C217.08 28.8104 216.898 28.9427 216.733 29.2071C216.568 29.4716 216.452 29.6038 216.386 29.6038C216.188 29.6038 216.088 29.5212 216.088 29.3559C216.088 29.2898 216.171 29.141 216.336 28.9096C216.535 28.6782 216.783 28.4137 217.08 28.1162C217.378 27.8187 217.692 27.5046 218.022 27.174C218.353 26.8435 218.667 26.5294 218.964 26.2319C220.419 24.8434 221.857 23.8517 223.279 23.2566C224.7 22.6285 225.973 22.3145 227.097 22.3145C228.056 22.3145 228.783 22.645 229.279 23.3062C229.808 23.9343 230.072 24.7442 230.072 25.736ZM228.981 25.1409C228.981 24.5459 228.849 24.0335 228.584 23.6037C228.32 23.1409 227.874 22.9095 227.246 22.9095C226.386 22.9095 225.477 23.2731 224.518 24.0004C223.56 24.7277 222.684 25.6368 221.89 26.7278C221.097 27.8187 220.436 28.9923 219.907 30.2485C219.411 31.5047 219.163 32.6452 219.163 33.67C219.163 34.3643 219.278 34.8436 219.51 35.1081C219.774 35.3725 220.088 35.5048 220.452 35.5048C221.444 35.5048 222.436 35.1742 223.427 34.513C224.452 33.8519 225.361 33.0254 226.155 32.0336C226.981 31.0088 227.659 29.8848 228.188 28.6617C228.717 27.4385 228.981 26.2649 228.981 25.1409Z" fill="white"/>
<path d="M233.544 36.0998C233.709 35.8023 234.006 35.323 234.436 34.6618C234.899 34.0006 235.428 33.2568 236.023 32.4303C236.618 31.5708 237.23 30.6782 237.858 29.7526C238.519 28.827 239.114 27.9674 239.643 27.174C240.172 26.3476 240.602 25.6203 240.932 24.9922C241.296 24.3641 241.478 23.9178 241.478 23.6533C241.478 23.3889 241.395 23.207 241.23 23.1079C241.097 22.9756 240.932 22.9095 240.734 22.9095C240.04 22.9095 239.296 23.207 238.502 23.8021C237.742 24.3641 236.734 25.3393 235.478 26.7278C234.882 27.3559 234.42 27.8517 234.089 28.2154C233.792 28.579 233.56 28.86 233.395 29.0584C233.263 29.2237 233.163 29.3394 233.097 29.4055C233.064 29.4385 233.031 29.4551 232.998 29.4551C232.833 29.4551 232.75 29.3559 232.75 29.1576C232.75 29.1245 232.816 29.0253 232.949 28.86C233.081 28.6617 233.246 28.4633 233.444 28.265C233.643 28.0336 233.841 27.8022 234.039 27.5707C234.271 27.3063 234.469 27.0749 234.635 26.8765C235.825 25.4881 236.932 24.3806 237.957 23.5541C238.982 22.7277 239.973 22.3145 240.932 22.3145C241.593 22.3145 242.056 22.5293 242.321 22.9591C242.618 23.3889 242.767 23.9839 242.767 24.7442C242.767 25.2401 242.651 25.7856 242.42 26.3806C242.188 26.9426 241.907 27.5046 241.577 28.0666C241.279 28.6286 240.949 29.1741 240.585 29.703C240.221 30.1989 239.907 30.6287 239.643 30.9923L239.742 31.0915C240.238 30.6287 240.916 29.9179 241.775 28.9592C242.668 27.9674 243.61 26.9922 244.602 26.0335C245.593 25.0418 246.569 24.1823 247.527 23.455C248.486 22.6946 249.279 22.3145 249.908 22.3145C250.536 22.3145 250.982 22.5789 251.246 23.1079C251.544 23.6037 251.693 24.1161 251.693 24.6451C251.693 25.5046 251.494 26.298 251.098 27.0253C250.701 27.7195 250.288 28.3476 249.858 28.9096C247.643 31.9179 246.536 33.7857 246.536 34.513C246.536 34.7775 246.602 35.0089 246.734 35.2072C246.866 35.4056 247.064 35.5048 247.329 35.5048C247.891 35.5048 248.651 35.1246 249.61 34.3643C250.569 33.5709 251.56 32.6287 252.585 31.5378C253.213 30.8766 253.693 30.3642 254.023 30.0005C254.354 29.6038 254.585 29.3228 254.718 29.1576C254.883 28.9592 254.982 28.8435 255.015 28.8104C255.081 28.7443 255.147 28.7113 255.213 28.7113C255.346 28.7113 255.412 28.7939 255.412 28.9592C255.412 29.0253 255.28 29.2237 255.015 29.5543C254.751 29.8848 254.437 30.2485 254.073 30.6452C253.742 31.0419 253.395 31.4221 253.032 31.7857C252.701 32.1493 252.453 32.4138 252.288 32.5791C251.197 33.67 250.222 34.5295 249.362 35.1577C248.503 35.7858 247.792 36.0998 247.23 36.0998C246.469 36.0998 245.907 35.8023 245.544 35.2072C245.213 34.5791 245.048 33.8188 245.048 32.9262C245.048 31.9345 245.329 30.9592 245.891 30.0005C246.453 29.0088 247.064 28.0997 247.726 27.2732C248.387 26.4137 248.998 25.6534 249.56 24.9922C250.122 24.331 250.403 23.8351 250.403 23.5046C250.403 23.1079 250.172 22.9095 249.709 22.9095C249.312 22.9095 248.75 23.174 248.023 23.7029C247.296 24.2318 246.503 24.9095 245.643 25.736C244.783 26.5625 243.891 27.4881 242.965 28.5129C242.04 29.5047 241.164 30.4799 240.337 31.4386C239.511 32.3973 238.783 33.2733 238.155 34.0667C237.527 34.8271 237.097 35.4056 236.866 35.8023L233.544 36.0998Z" fill="white"/>
<path d="M266.635 13.0911L269.71 12.8928L266.486 17.8516H272.288C272.454 17.8516 272.536 17.9507 272.536 18.1491C272.536 18.3474 272.454 18.4466 272.288 18.4466H266.139C265.875 18.9094 265.462 19.5871 264.9 20.4797C264.338 21.3392 263.71 22.3145 263.015 23.4054C262.321 24.4633 261.594 25.5872 260.833 26.7773C260.106 27.9674 259.428 29.0914 258.8 30.1493C258.205 31.1741 257.709 32.1163 257.313 32.9758C256.916 33.8023 256.718 34.3973 256.718 34.761C256.718 35.2568 257.032 35.5048 257.66 35.5048C258.42 35.5048 259.23 35.2072 260.09 34.6122C260.982 33.9841 261.991 33.108 263.115 31.984C263.743 31.3559 264.238 30.8435 264.602 30.4468C264.999 30.0171 265.296 29.6865 265.495 29.4551C265.726 29.1906 265.875 29.0088 265.941 28.9096C266.04 28.7774 266.123 28.7113 266.189 28.7113C266.354 28.7113 266.437 28.8104 266.437 29.0088C266.437 29.0418 266.338 29.1741 266.139 29.4055C265.974 29.6369 265.759 29.9014 265.495 30.1989C265.23 30.4964 264.933 30.8105 264.602 31.1411C264.305 31.4716 264.024 31.7692 263.759 32.0336C262.238 33.5543 260.999 34.6122 260.04 35.2072C259.081 35.8023 258.255 36.0998 257.561 36.0998C256.701 36.0668 256.09 35.8023 255.726 35.3064C255.395 34.7775 255.23 34.232 255.23 33.67C255.23 32.9758 255.329 32.2981 255.528 31.6369C255.726 30.9427 256.023 30.232 256.42 29.5047C256.817 28.7443 257.296 27.9509 257.858 27.1245C258.453 26.2649 259.114 25.3062 259.842 24.2484L259.743 24.1492C259.28 24.7112 258.817 25.2401 258.354 25.736C257.924 26.2319 257.379 26.86 256.718 27.6203C256.619 27.7526 256.453 27.9344 256.222 28.1658C256.023 28.3972 255.825 28.6286 255.627 28.86C255.428 29.0914 255.247 29.3063 255.081 29.5047C254.916 29.67 254.817 29.7526 254.784 29.7526C254.618 29.7526 254.536 29.6865 254.536 29.5543C254.536 29.5212 254.552 29.4716 254.585 29.4055C254.618 29.3063 254.701 29.1741 254.833 29.0088C254.999 28.8435 255.214 28.6121 255.478 28.3146C255.776 27.984 256.172 27.5377 256.668 26.9757C257.032 26.579 257.478 26.0666 258.007 25.4385C258.569 24.8104 259.148 24.1161 259.743 23.3558C260.371 22.5955 260.999 21.802 261.627 20.9756C262.288 20.1161 262.9 19.2731 263.462 18.4466H261.676C261.511 18.4466 261.429 18.3474 261.429 18.1491C261.429 17.9507 261.495 17.8516 261.627 17.8516H263.71L266.635 13.0911Z" fill="white"/>
<path d="M278.719 24.6947C278.719 25.6203 278.322 26.4633 277.529 27.2236C276.735 27.9509 275.793 28.5956 274.702 29.1576C273.611 29.6865 272.487 30.1328 271.33 30.4964C270.173 30.8601 269.231 31.108 268.504 31.2402C268.438 31.5047 268.388 31.7857 268.355 32.0832C268.322 32.3477 268.305 32.6122 268.305 32.8766C268.305 33.8353 268.454 34.513 268.752 34.9097C269.082 35.2734 269.628 35.4717 270.388 35.5048C271.049 35.5378 271.991 35.2734 273.215 34.7114C274.438 34.1163 275.81 33.075 277.33 31.5873C278.289 30.5956 278.934 29.8683 279.264 29.4055C279.628 28.9427 279.859 28.7113 279.958 28.7113C280.124 28.7113 280.206 28.8104 280.206 29.0088C280.206 29.0749 280.091 29.2402 279.859 29.5047C279.661 29.7691 279.396 30.0997 279.066 30.4964C278.735 30.8601 278.355 31.2568 277.925 31.6865C277.529 32.1163 277.148 32.4965 276.785 32.827C275.529 33.9841 274.372 34.8105 273.314 35.3064C272.289 35.8023 271.198 36.0668 270.041 36.0998C269.347 36.0998 268.752 35.9511 268.256 35.6535C267.793 35.356 267.396 34.9593 267.066 34.4634C266.735 33.9676 266.487 33.4056 266.322 32.7775C266.19 32.1493 266.123 31.5047 266.123 30.8435C266.123 30.4799 266.14 30.1658 266.173 29.9014C266.239 29.6369 266.272 29.4716 266.272 29.4055C266.272 29.3724 266.256 29.3394 266.223 29.3063C266.123 29.4055 266.074 29.4551 266.074 29.4551C266.041 29.4551 265.991 29.422 265.925 29.3559C265.859 29.2898 265.826 29.2237 265.826 29.1576C265.826 29.1245 265.892 29.0088 266.024 28.8104C266.19 28.6121 266.371 28.3972 266.57 28.1658C266.801 27.9344 267.016 27.7195 267.214 27.5212C267.413 27.2897 267.561 27.1245 267.661 27.0253C269.049 25.6368 270.487 24.5128 271.975 23.6533C273.462 22.7607 274.884 22.3145 276.239 22.3145C277 22.3145 277.595 22.5459 278.025 23.0087C278.487 23.4384 278.719 24.0004 278.719 24.6947ZM276.239 22.9095C275.578 22.9095 274.851 23.1905 274.057 23.7525C273.264 24.2814 272.487 24.9426 271.727 25.736C271 26.5294 270.355 27.3724 269.793 28.265C269.231 29.1576 268.867 29.951 268.702 30.6452C269.528 30.546 270.438 30.3146 271.429 29.951C272.421 29.5543 273.347 29.0584 274.206 28.4633C275.066 27.8352 275.777 27.141 276.339 26.3806C276.934 25.5872 277.231 24.7442 277.231 23.8517C277.231 23.2236 276.901 22.9095 276.239 22.9095Z" fill="white"/>
<path d="M289.396 36.0998C289.561 35.8023 289.842 35.323 290.239 34.6618C290.669 34.0006 291.148 33.2568 291.677 32.4303C292.206 31.6039 292.751 30.7444 293.313 29.8518C293.875 28.9261 294.388 28.0666 294.851 27.2732C295.346 26.4468 295.743 25.7195 296.041 25.0914C296.338 24.4302 296.487 23.9508 296.487 23.6533C296.487 23.1905 296.272 22.9426 295.842 22.9095C295.479 22.8764 294.966 23.1244 294.305 23.6533C293.677 24.1492 292.95 24.8269 292.123 25.6864C291.33 26.5129 290.503 27.4385 289.644 28.4633C288.784 29.4881 287.974 30.4964 287.214 31.4882C286.454 32.4469 285.776 33.3229 285.181 34.1163C284.586 34.8767 284.173 35.4387 283.941 35.8023L280.718 36.0998C283.131 32.265 284.999 29.3228 286.322 27.2732C287.644 25.2236 288.305 24.0004 288.305 23.6037C288.305 23.1409 288.057 22.9095 287.561 22.9095C286.867 22.9095 286.107 23.2401 285.28 23.9013C284.487 24.5294 283.677 25.2732 282.85 26.1327C281.693 27.3889 280.916 28.265 280.52 28.7609C280.156 29.2237 279.925 29.4551 279.826 29.4551C279.726 29.4551 279.66 29.422 279.627 29.3559C279.594 29.2898 279.578 29.2237 279.578 29.1576C279.578 29.0914 279.826 28.7774 280.321 28.2154C280.85 27.6203 281.578 26.7939 282.503 25.736C283.66 24.4467 284.652 23.5541 285.479 23.0583C286.305 22.5624 287.016 22.3145 287.611 22.3145C288.933 22.3145 289.594 22.9426 289.594 24.1988C289.594 24.7608 289.495 25.3393 289.297 25.9344C289.098 26.5294 288.85 27.1245 288.553 27.7195C288.255 28.2815 287.941 28.8435 287.611 29.4055C287.28 29.9675 286.999 30.4634 286.768 30.8931L286.867 30.9923C287.297 30.5295 287.892 29.8187 288.652 28.86C289.446 27.9013 290.272 26.9426 291.132 25.9839C292.024 24.9922 292.9 24.1327 293.76 23.4054C294.652 22.6781 295.429 22.3145 296.09 22.3145C296.652 22.3145 297.066 22.4963 297.33 22.8599C297.628 23.1905 297.776 23.7525 297.776 24.5459C297.776 25.1079 297.694 25.6699 297.528 26.2319C297.363 26.7939 297.148 27.3559 296.884 27.9179C296.652 28.4468 296.388 28.9592 296.09 29.4551C295.826 29.951 295.578 30.3972 295.346 30.7939L295.446 30.8931C295.875 30.3972 296.47 29.67 297.231 28.7113C298.024 27.7526 298.867 26.8104 299.76 25.8848C300.685 24.9261 301.595 24.0996 302.487 23.4054C303.413 22.6781 304.223 22.3145 304.917 22.3145C305.38 22.3145 305.776 22.5128 306.107 22.9095C306.471 23.3062 306.652 23.9508 306.652 24.8434C306.652 25.6368 306.405 26.4633 305.909 27.3228C305.413 28.1823 304.851 29.0418 304.223 29.9014C303.595 30.7278 303.016 31.5378 302.487 32.3312C301.958 33.0915 301.661 33.7857 301.595 34.4138C301.561 34.6783 301.611 34.9263 301.743 35.1577C301.909 35.3891 302.123 35.5048 302.388 35.5048C302.851 35.5048 303.479 35.2238 304.272 34.6618C305.099 34.0667 305.975 33.2899 306.9 32.3312C307.727 31.4386 308.355 30.7609 308.785 30.2981C309.215 29.8022 309.529 29.4551 309.727 29.2567C309.925 29.0253 310.041 28.8931 310.074 28.86C310.14 28.7939 310.206 28.7609 310.272 28.7609C310.438 28.7609 310.52 28.8435 310.52 29.0088C310.52 29.0749 310.421 29.2237 310.223 29.4551C310.057 29.6534 309.843 29.9014 309.578 30.1989C309.314 30.4964 309.016 30.827 308.686 31.1906C308.355 31.5543 308.024 31.9014 307.694 32.232C306.438 33.5213 305.38 34.4965 304.52 35.1577C303.694 35.7858 302.933 36.0998 302.239 36.0998C301.479 36.0998 300.933 35.8188 300.603 35.2568C300.272 34.6618 300.107 33.8849 300.107 32.9262C300.107 31.9014 300.371 30.9097 300.9 29.951C301.462 28.9923 302.074 28.0997 302.735 27.2732C303.396 26.4468 303.991 25.7029 304.52 25.0418C305.082 24.3806 305.363 23.8186 305.363 23.3558C305.363 23.2566 305.314 23.1574 305.214 23.0583C305.148 22.9591 304.983 22.9095 304.719 22.9095C304.256 22.9095 303.661 23.1905 302.933 23.7525C302.206 24.2814 301.429 24.9757 300.603 25.8352C299.776 26.6616 298.933 27.5873 298.074 28.6121C297.214 29.6038 296.404 30.5791 295.644 31.5378C294.917 32.4965 294.272 33.3725 293.71 34.1659C293.148 34.9263 292.751 35.4717 292.52 35.8023L289.396 36.0998Z" fill="white"/>
<path d="M324.024 13.587L313.462 31.4882L313.561 31.5873C314.024 31.0584 314.685 30.2815 315.545 29.2567C316.438 28.1989 317.38 27.1575 318.371 26.1327C319.396 25.1079 320.421 24.2153 321.446 23.455C322.504 22.6946 323.429 22.3145 324.223 22.3145C324.884 22.3145 325.347 22.5789 325.611 23.1079C325.909 23.6037 326.058 24.1988 326.058 24.893C326.058 25.6864 325.777 26.5294 325.215 27.422C324.686 28.2815 324.074 29.1576 323.38 30.0501C322.719 30.9427 322.107 31.8022 321.545 32.6287C321.016 33.4552 320.752 34.1824 320.752 34.8105C320.752 35.2734 321.016 35.5048 321.545 35.5048C321.81 35.5048 322.107 35.4552 322.438 35.356C322.801 35.2238 323.215 35.0089 323.677 34.7114C324.14 34.3808 324.669 33.9345 325.264 33.3725C325.859 32.8105 326.537 32.0998 327.297 31.2402C327.793 30.6782 328.173 30.232 328.438 29.9014C328.735 29.5708 328.95 29.3228 329.082 29.1576C329.248 28.9592 329.347 28.8435 329.38 28.8104C329.446 28.7443 329.512 28.7113 329.578 28.7113C329.744 28.7113 329.826 28.7939 329.826 28.9592C329.826 29.0253 329.81 29.0914 329.777 29.1576C329.744 29.1906 329.677 29.2733 329.578 29.4055C329.479 29.5047 329.33 29.67 329.132 29.9014C328.934 30.0997 328.653 30.4138 328.289 30.8435C326.603 32.8601 325.215 34.2486 324.124 35.0089C323.033 35.7362 322.124 36.0998 321.396 36.0998C320.636 36.0998 320.09 35.8188 319.76 35.2568C319.429 34.6618 319.264 33.8849 319.264 32.9262C319.264 31.9345 319.528 30.9923 320.057 30.0997C320.619 29.1741 321.231 28.3146 321.892 27.5212C322.586 26.7278 323.198 26.0005 323.727 25.3393C324.289 24.6451 324.57 24.05 324.57 23.5541C324.57 23.1244 324.355 22.9095 323.925 22.9095C323.462 22.9095 322.686 23.2897 321.595 24.05C320.504 24.8104 319.214 25.9674 317.727 27.5212C316.239 29.0749 314.619 31.0254 312.867 33.3725C311.115 35.7197 309.33 38.48 307.512 41.6536L303.396 48.8934L300.074 49.0918L317.082 21.4715L316.983 21.3723C316.322 22.1326 315.611 22.9922 314.851 23.9508C314.09 24.8765 313.363 25.7525 312.669 26.579C311.975 27.4055 311.38 28.0997 310.884 28.6617C310.421 29.2237 310.173 29.5047 310.14 29.5047C309.942 29.5047 309.842 29.422 309.842 29.2567C309.842 29.1906 309.859 29.1245 309.892 29.0584C309.958 28.9923 310.074 28.86 310.239 28.6617C310.437 28.4303 310.735 28.0997 311.132 27.6699C311.528 27.2071 312.074 26.5459 312.768 25.6864C313.528 24.7277 314.19 23.9013 314.752 23.207C315.347 22.5128 315.859 21.8847 316.289 21.3227C316.752 20.7607 317.165 20.2483 317.528 19.7855C317.892 19.2896 318.256 18.7772 318.619 18.2483C319.016 17.6863 319.429 17.0747 319.859 16.4135C320.322 15.7524 320.851 14.9589 321.446 14.0333L324.024 13.587Z" fill="white"/>
<path d="M332.091 36.0998C331.331 36.0998 330.736 35.8684 330.306 35.4056C329.909 34.9097 329.711 34.2816 329.711 33.5213C329.711 32.6948 329.876 31.8683 330.207 31.0419C330.537 30.2154 330.934 29.4055 331.397 28.6121C331.893 27.8187 332.405 27.0583 332.934 26.3311C333.496 25.6038 333.992 24.9261 334.422 24.298L334.322 24.1988C334.025 24.4963 333.546 24.9922 332.884 25.6864C332.223 26.3806 331.298 27.4055 330.107 28.7609C329.843 29.0584 329.678 29.2402 329.612 29.3063C329.545 29.3724 329.479 29.4055 329.413 29.4055C329.281 29.4055 329.215 29.3063 329.215 29.108C329.215 29.0418 329.298 28.9261 329.463 28.7609C329.628 28.5625 330.041 28.0832 330.702 27.3228C331.033 26.9592 331.397 26.5625 331.793 26.1327C332.223 25.6699 332.636 25.2236 333.033 24.7938C333.43 24.331 333.793 23.9013 334.124 23.5046C334.488 23.1079 334.769 22.7773 334.967 22.5128L338.091 22.3145C336.603 24.7608 335.397 26.7278 334.471 28.2154C333.579 29.67 332.884 30.827 332.388 31.6865C331.926 32.513 331.612 33.1246 331.446 33.5213C331.281 33.8849 331.198 34.199 331.198 34.4634C331.198 34.8932 331.298 35.1742 331.496 35.3064C331.694 35.4387 331.909 35.5048 332.141 35.5048C332.537 35.5048 332.967 35.3891 333.43 35.1577C333.893 34.9263 334.372 34.6453 334.868 34.3147C335.364 33.951 335.843 33.5543 336.306 33.1246C336.802 32.6948 337.248 32.265 337.645 31.8353C337.975 31.5047 338.306 31.1576 338.637 30.7939C339 30.3972 339.314 30.0336 339.579 29.703C339.876 29.3724 340.124 29.108 340.323 28.9096C340.521 28.6782 340.637 28.5625 340.67 28.5625C340.868 28.5625 340.967 28.6451 340.967 28.8104C340.967 28.8766 340.719 29.2071 340.223 29.8022C339.76 30.3642 339 31.1906 337.942 32.2816C335.496 34.8271 333.546 36.0998 332.091 36.0998ZM339.827 14.4796C339.827 14.0498 339.975 13.6366 340.273 13.2399C340.57 12.8101 341 12.5953 341.562 12.5953C341.926 12.5953 342.207 12.7275 342.405 12.992C342.604 13.2234 342.703 13.5209 342.703 13.8845C342.703 14.3143 342.554 14.7441 342.256 15.1738C341.959 15.5705 341.529 15.7689 340.967 15.7689C340.603 15.7689 340.322 15.6532 340.124 15.4218C339.926 15.1573 339.827 14.8432 339.827 14.4796Z" fill="white"/>
</svg>
