<svg width="96" height="24" viewBox="0 0 96 24" fill="none" xmlns="http://www.w3.org/2000/svg">
<path d="M32.1228 7.99856V6.65456L32.0357 6.36834V4.01634C32.0357 3.56005 31.8988 3.20745 31.625 2.95856C31.3512 2.70138 30.9364 2.57279 30.3806 2.57279C30.0072 2.57279 29.638 2.63086 29.273 2.74701C28.9163 2.86316 28.6134 3.02493 28.3646 3.23234L27.7548 2.0999C28.1115 1.82612 28.5346 1.62286 29.0241 1.49012C29.5219 1.34908 30.0363 1.27856 30.5672 1.27856C31.5296 1.27856 32.2721 1.51086 32.7948 1.97545C33.3257 2.43175 33.5912 3.14108 33.5912 4.10345V7.99856H32.1228ZM30.0321 8.08568C29.5343 8.08568 29.0988 8.00271 28.7254 7.83679C28.3521 7.66256 28.0617 7.42612 27.8543 7.12745C27.6552 6.82049 27.5557 6.47619 27.5557 6.09456C27.5557 5.72123 27.6428 5.38523 27.817 5.08656C27.9995 4.7879 28.294 4.55145 28.7006 4.37723C29.1071 4.20301 29.6463 4.1159 30.3183 4.1159H32.2472V5.14879H30.4303C29.8994 5.14879 29.5426 5.2359 29.3601 5.41012C29.1776 5.57605 29.0863 5.78345 29.0863 6.03234C29.0863 6.31442 29.1983 6.53842 29.4223 6.70434C29.6463 6.87027 29.9574 6.95323 30.3557 6.95323C30.7373 6.95323 31.0774 6.86612 31.3761 6.6919C31.6831 6.51768 31.9029 6.26049 32.0357 5.92034L32.297 6.85368C32.1477 7.2436 31.878 7.54642 31.4881 7.76212C31.1065 7.97782 30.6211 8.08568 30.0321 8.08568Z" fill="white" fill-opacity="0.5"/>
<path d="M40.7179 7.99856L38.3161 4.81279L39.5855 4.02879L42.5472 7.99856H40.7179ZM35.9517 7.99856V1.35323H37.5072V7.99856H35.9517ZM37.0468 5.33545V4.04123H39.2992V5.33545H37.0468ZM39.7348 4.86256L38.2788 4.68834L40.7179 1.35323H42.3855L39.7348 4.86256Z" fill="white" fill-opacity="0.5"/>
<path d="M44.0799 7.99856V1.35323H45.6355V6.67945H48.8088V1.35323H50.3644V7.99856H44.0799ZM49.9164 9.47945V7.96123L50.2773 7.99856H48.8088V6.67945H51.3724V9.47945H49.9164Z" fill="white" fill-opacity="0.5"/>
<path d="M56.2912 8.08568C55.5529 8.08568 54.9058 7.94049 54.3499 7.65012C53.8024 7.35145 53.3751 6.94494 53.0681 6.43056C52.7695 5.91619 52.6201 5.33131 52.6201 4.6759C52.6201 4.01219 52.7653 3.42731 53.0557 2.92123C53.3544 2.40686 53.7609 2.00449 54.2752 1.71412C54.7979 1.42375 55.3911 1.27856 56.0548 1.27856C56.7019 1.27856 57.2785 1.4196 57.7846 1.70168C58.2907 1.98375 58.6889 2.38197 58.9792 2.89634C59.2696 3.41071 59.4148 4.01634 59.4148 4.71323C59.4148 4.7796 59.4107 4.85427 59.4024 4.93723C59.4024 5.02019 59.3982 5.09901 59.3899 5.17368H53.8521V4.14079H58.5686L57.9588 4.46434C57.9671 4.08271 57.8883 3.74671 57.7224 3.45634C57.5564 3.16597 57.3283 2.93782 57.0379 2.7719C56.7558 2.60597 56.4281 2.52301 56.0548 2.52301C55.6732 2.52301 55.3372 2.60597 55.0468 2.7719C54.7647 2.93782 54.5407 3.17012 54.3748 3.46879C54.2172 3.75916 54.1384 4.10345 54.1384 4.50168V4.75056C54.1384 5.14879 54.2296 5.50138 54.4121 5.80834C54.5947 6.11531 54.8518 6.35175 55.1837 6.51768C55.5155 6.6836 55.8972 6.76656 56.3286 6.76656C56.7019 6.76656 57.0379 6.70849 57.3366 6.59234C57.6352 6.47619 57.9007 6.29368 58.133 6.04479L58.9668 7.00301C58.6681 7.35145 58.2907 7.62108 57.8344 7.8119C57.3864 7.99442 56.872 8.08568 56.2912 8.08568Z" fill="white" fill-opacity="0.5"/>
<path d="M61.5517 7.99856V1.35323H63.1073V4.05368H66.4549V1.35323H68.0104V7.99856H66.4549V5.37279H63.1073V7.99856H61.5517Z" fill="white" fill-opacity="0.5"/>
<path d="M71.912 7.99856V2.29901L72.2729 2.67234H69.5725V1.35323H75.7947V2.67234H73.1067L73.4676 2.29901V7.99856H71.912Z" fill="white" fill-opacity="0.5"/>
<path d="M27.5557 16.8881V11.7657H28.7547V13.8473H31.3351V11.7657H32.5342V16.8881H31.3351V14.8641H28.7547V16.8881H27.5557Z" fill="white" fill-opacity="0.5"/>
<path d="M37.1533 16.8881V15.8521L37.0861 15.6315V13.8185C37.0861 13.4668 36.9806 13.195 36.7696 13.0031C36.5585 12.8049 36.2388 12.7057 35.8103 12.7057C35.5225 12.7057 35.238 12.7505 34.9566 12.84C34.6816 12.9296 34.4482 13.0543 34.2563 13.2141L33.7863 12.3412C34.0613 12.1302 34.3874 11.9735 34.7647 11.8712C35.1484 11.7625 35.5449 11.7081 35.9542 11.7081C36.696 11.7081 37.2684 11.8872 37.6713 12.2453C38.0806 12.597 38.2852 13.1438 38.2852 13.8856V16.8881H37.1533ZM35.5417 16.9553C35.158 16.9553 34.8223 16.8913 34.5345 16.7634C34.2467 16.6291 34.0229 16.4469 33.863 16.2166C33.7095 15.98 33.6328 15.7146 33.6328 15.4204C33.6328 15.1327 33.6999 14.8737 33.8342 14.6434C33.9749 14.4132 34.202 14.231 34.5153 14.0967C34.8287 13.9624 35.2444 13.8952 35.7624 13.8952H37.2492V14.6914H35.8487C35.4394 14.6914 35.1644 14.7586 35.0237 14.8929C34.883 15.0208 34.8127 15.1806 34.8127 15.3725C34.8127 15.5899 34.899 15.7626 35.0717 15.8905C35.2444 16.0184 35.4842 16.0823 35.7911 16.0823C36.0853 16.0823 36.3475 16.0152 36.5777 15.8809C36.8143 15.7466 36.9838 15.5483 37.0861 15.2861L37.2876 16.0056C37.1725 16.3062 36.9646 16.5396 36.6641 16.7059C36.3699 16.8721 35.9958 16.9553 35.5417 16.9553Z" fill="white" fill-opacity="0.5"/>
<path d="M45.0676 16.9553C44.6519 16.9553 44.2714 16.8593 43.9261 16.6675C43.5872 16.4756 43.3154 16.1879 43.1107 15.8041C42.9125 15.414 42.8134 14.9216 42.8134 14.3269C42.8134 13.7258 42.9093 13.2333 43.1011 12.8496C43.2994 12.4659 43.568 12.1813 43.9069 11.9959C44.2459 11.804 44.6328 11.7081 45.0676 11.7081C45.5728 11.7081 46.0173 11.8168 46.401 12.0343C46.7911 12.2517 47.098 12.5555 47.3219 12.9456C47.5521 13.3357 47.6672 13.7961 47.6672 14.3269C47.6672 14.8577 47.5521 15.3213 47.3219 15.7178C47.098 16.1079 46.7911 16.4117 46.401 16.6291C46.0173 16.8465 45.5728 16.9553 45.0676 16.9553ZM42.2282 18.7491V11.7657H43.3697V12.9743L43.3314 14.3365L43.4273 15.6986V18.7491H42.2282ZM44.9333 15.9289C45.2211 15.9289 45.4769 15.8649 45.7007 15.737C45.931 15.6091 46.1132 15.4236 46.2475 15.1806C46.3818 14.9376 46.4489 14.653 46.4489 14.3269C46.4489 13.9943 46.3818 13.7098 46.2475 13.4731C46.1132 13.2301 45.931 13.0447 45.7007 12.9168C45.4769 12.7889 45.2211 12.7249 44.9333 12.7249C44.6455 12.7249 44.3865 12.7889 44.1563 12.9168C43.9261 13.0447 43.7438 13.2301 43.6095 13.4731C43.4752 13.7098 43.4081 13.9943 43.4081 14.3269C43.4081 14.653 43.4752 14.9376 43.6095 15.1806C43.7438 15.4236 43.9261 15.6091 44.1563 15.737C44.3865 15.8649 44.6455 15.9289 44.9333 15.9289Z" fill="white" fill-opacity="0.5"/>
<path d="M51.1532 16.9553C50.5841 16.9553 50.0852 16.8433 49.6568 16.6195C49.2347 16.3893 48.9054 16.0759 48.6687 15.6794C48.4385 15.283 48.3234 14.8321 48.3234 14.3269C48.3234 13.8153 48.4353 13.3644 48.6591 12.9743C48.8894 12.5778 49.2027 12.2677 49.5992 12.0439C50.0021 11.82 50.4594 11.7081 50.971 11.7081C51.4698 11.7081 51.9142 11.8168 52.3043 12.0343C52.6944 12.2517 53.0014 12.5587 53.2252 12.9551C53.449 13.3516 53.561 13.8185 53.561 14.3557C53.561 14.4068 53.5578 14.4644 53.5514 14.5283C53.5514 14.5923 53.5482 14.653 53.5418 14.7106H49.2731V13.9144H52.9087L52.4386 14.1638C52.445 13.8696 52.3843 13.6106 52.2564 13.3868C52.1285 13.163 51.9526 12.9871 51.7288 12.8592C51.5113 12.7313 51.2587 12.6674 50.971 12.6674C50.6768 12.6674 50.4178 12.7313 50.194 12.8592C49.9765 12.9871 49.8039 13.1662 49.676 13.3964C49.5544 13.6202 49.4937 13.8856 49.4937 14.1926V14.3844C49.4937 14.6914 49.564 14.9632 49.7047 15.1998C49.8454 15.4364 50.0437 15.6187 50.2995 15.7466C50.5553 15.8745 50.8495 15.9384 51.182 15.9384C51.4698 15.9384 51.7288 15.8937 51.959 15.8041C52.1892 15.7146 52.3939 15.5739 52.5729 15.3821L53.2156 16.1207C52.9854 16.3893 52.6944 16.5971 52.3427 16.7442C51.9974 16.8849 51.6009 16.9553 51.1532 16.9553Z" fill="white" fill-opacity="0.5"/>
<path d="M56.3134 16.9744C56.7866 16.9744 57.2055 16.9073 57.57 16.773C57.9409 16.6387 58.2319 16.4532 58.4429 16.2166C58.6539 15.9736 58.7595 15.6954 58.7595 15.3821C58.7595 14.992 58.5964 14.685 58.2702 14.4612C57.9441 14.231 57.4964 14.1159 56.9273 14.1159L56.8889 14.3749C57.2215 14.3749 57.5156 14.3205 57.7714 14.2118C58.0336 14.1031 58.2383 13.9528 58.3854 13.7609C58.5388 13.5627 58.6156 13.342 58.6156 13.099C58.6156 12.8049 58.5101 12.5491 58.299 12.3316C58.088 12.1142 57.8002 11.9479 57.4357 11.8328C57.0712 11.7177 56.6555 11.6697 56.1887 11.6889C55.8817 11.6953 55.5715 11.7401 55.2582 11.8232C54.9512 11.9 54.6347 12.0119 54.3085 12.159L54.6155 13.0415C54.8968 12.92 55.1718 12.8272 55.4404 12.7633C55.7154 12.6993 55.9808 12.6674 56.2366 12.6674C56.4796 12.6674 56.6875 12.693 56.8601 12.7441C57.0328 12.7889 57.1639 12.8592 57.2534 12.9551C57.3494 13.0447 57.3973 13.1502 57.3973 13.2717C57.3973 13.3932 57.3589 13.4987 57.2822 13.5883C57.2055 13.6778 57.0936 13.7449 56.9465 13.7897C56.8058 13.8345 56.6331 13.8569 56.4285 13.8569H55.5364V14.6626H56.5244C56.8505 14.6626 57.0999 14.717 57.2726 14.8257C57.4517 14.928 57.5412 15.0815 57.5412 15.2861C57.5412 15.4268 57.4868 15.5515 57.3781 15.6603C57.2758 15.769 57.1287 15.8521 56.9369 15.9097C56.745 15.9608 56.5148 15.9864 56.2462 15.9864C55.9328 15.9864 55.6195 15.948 55.3061 15.8713C54.9928 15.7946 54.7114 15.6858 54.462 15.5451L54.1262 16.4373C54.4332 16.6099 54.7753 16.7442 55.1527 16.8401C55.5364 16.9297 55.9233 16.9744 56.3134 16.9744Z" fill="white" fill-opacity="0.5"/>
<path d="M60.3589 18.8162C60.1095 18.8162 59.8601 18.7747 59.6107 18.6915C59.3613 18.6084 59.1534 18.4933 58.9871 18.3462L59.4668 17.4637C59.5883 17.5724 59.7258 17.6587 59.8793 17.7227C60.0327 17.7866 60.1894 17.8186 60.3493 17.8186C60.5667 17.8186 60.7426 17.7642 60.8769 17.6555C61.0112 17.5468 61.1359 17.3645 61.251 17.1087L61.5484 16.4373L61.6443 16.2934L63.582 11.7657H64.7331L62.335 17.3006C62.1751 17.6843 61.996 17.9881 61.7978 18.2119C61.6059 18.4357 61.3885 18.5924 61.1455 18.6819C60.9089 18.7715 60.6467 18.8162 60.3589 18.8162ZM61.4141 17.0704L59.1023 11.7657H60.3493L62.2294 16.1879L61.4141 17.0704Z" fill="white" fill-opacity="0.5"/>
<path d="M64.4126 16.8785L64.4702 15.8713C64.515 15.8777 64.5565 15.8841 64.5949 15.8905C64.6333 15.8969 64.6684 15.9001 64.7004 15.9001C64.8987 15.9001 65.0522 15.8393 65.1609 15.7178C65.2696 15.5963 65.3495 15.4332 65.4007 15.2286C65.4582 15.0176 65.4966 14.7841 65.5158 14.5283C65.5414 14.2661 65.5606 14.0039 65.5734 13.7417L65.6597 11.7657H69.8037V16.8881H68.6046V12.4563L68.8828 12.7825H66.4463L66.7053 12.4467L66.6381 13.7993C66.6189 14.2533 66.5806 14.6754 66.523 15.0655C66.4719 15.4492 66.3887 15.785 66.2736 16.0727C66.1649 16.3605 66.0114 16.5843 65.8132 16.7442C65.6213 16.9041 65.3751 16.984 65.0745 16.984C64.9786 16.984 64.8731 16.9744 64.758 16.9553C64.6493 16.9361 64.5342 16.9105 64.4126 16.8785Z" fill="white" fill-opacity="0.5"/>
<path d="M73.8934 13.454C74.5521 13.454 75.0541 13.601 75.3995 13.8952C75.7448 14.1894 75.9175 14.6051 75.9175 15.1423C75.9175 15.6986 75.7256 16.1335 75.3419 16.4469C74.9582 16.7538 74.4178 16.9041 73.7208 16.8977L71.3226 16.8881V11.7657H72.5217V13.4444L73.8934 13.454ZM73.6152 16.0152C73.967 16.0216 74.2356 15.948 74.421 15.7946C74.6065 15.6411 74.6992 15.4172 74.6992 15.1231C74.6992 14.8289 74.6065 14.6179 74.421 14.49C74.242 14.3557 73.9734 14.2853 73.6152 14.2789L72.5217 14.2693V16.0056L73.6152 16.0152Z" fill="white" fill-opacity="0.5"/>
<path d="M77.4625 16.8881V12.4947L77.7407 12.7825H75.6591V11.7657H80.4554V12.7825H78.3834L78.6615 12.4947V16.8881H77.4625Z" fill="white" fill-opacity="0.5"/>
<path d="M84.3372 16.8881V15.8521L84.2701 15.6315V13.8185C84.2701 13.4668 84.1646 13.195 83.9535 13.0031C83.7425 12.8049 83.4227 12.7057 82.9943 12.7057C82.7065 12.7057 82.4219 12.7505 82.1405 12.84C81.8655 12.9296 81.6321 13.0543 81.4403 13.2141L80.9702 12.3412C81.2452 12.1302 81.5714 11.9735 81.9487 11.8712C82.3324 11.7625 82.7289 11.7081 83.1381 11.7081C83.88 11.7081 84.4523 11.8872 84.8552 12.2453C85.2645 12.597 85.4691 13.1438 85.4691 13.8856V16.8881H84.3372ZM82.7257 16.9553C82.342 16.9553 82.0062 16.8913 81.7184 16.7634C81.4307 16.6291 81.2068 16.4469 81.047 16.2166C80.8935 15.98 80.8167 15.7146 80.8167 15.4204C80.8167 15.1327 80.8839 14.8737 81.0182 14.6434C81.1589 14.4132 81.3859 14.231 81.6993 14.0967C82.0126 13.9624 82.4283 13.8952 82.9463 13.8952H84.4331V14.6914H83.0326C82.6233 14.6914 82.3484 14.7586 82.2077 14.8929C82.067 15.0208 81.9966 15.1806 81.9966 15.3725C81.9966 15.5899 82.083 15.7626 82.2556 15.8905C82.4283 16.0184 82.6681 16.0823 82.9751 16.0823C83.2692 16.0823 83.5314 16.0152 83.7617 15.8809C83.9983 15.7466 84.1677 15.5483 84.2701 15.2861L84.4715 16.0056C84.3564 16.3062 84.1486 16.5396 83.848 16.7059C83.5538 16.8721 83.1797 16.9553 82.7257 16.9553Z" fill="white" fill-opacity="0.5"/>
<path d="M87.9218 16.8881V12.4947L88.2 12.7825H86.1184V11.7657H90.9147V12.7825H88.8427L89.1208 12.4947V16.8881H87.9218Z" fill="white" fill-opacity="0.5"/>
<path d="M94.2222 11.554L92 16.8873H93.7778L96 11.554H94.2222Z" fill="#FF1864"/>
<circle cx="11.5556" cy="12.4442" r="11.5556" fill="#FF1864"/>
<path d="M6.22266 17.7775L10.2718 6.22192H12.8271L16.8893 17.7775H14.1899L11.0187 7.82319H12.0408L8.86967 17.7775H6.22266ZM8.43723 15.5324L9.10554 13.1222H13.5871L14.2554 15.5324H8.43723Z" fill="white"/>
<path d="M15.5552 0L13.333 5.33333H15.1108L17.333 0H15.5552Z" fill="white"/>
</svg>
