<svg width="29" height="23" viewBox="0 0 29 23" fill="none" xmlns="http://www.w3.org/2000/svg">
<path fill-rule="evenodd" clip-rule="evenodd" d="M1.95923 10.1861C9.60962 7.01083 14.7111 4.9175 17.2636 3.90611C24.5516 1.01837 26.066 0.516741 27.053 0.500177C27.2701 0.496534 27.7555 0.547787 28.07 0.790835C28.3354 0.99606 28.4085 1.27329 28.4434 1.46787C28.4784 1.66244 28.5219 2.10569 28.4873 2.45203C28.0924 6.40513 26.3835 15.9982 25.5141 20.4258C25.1462 22.2992 24.4219 22.9274 23.7206 22.9889C22.1967 23.1224 21.0394 22.0294 19.5634 21.1077C17.2536 19.6653 15.9488 18.7675 13.7068 17.36C11.1158 15.7334 12.7954 14.8395 14.272 13.3784C14.6585 12.9961 21.3732 7.17782 21.5031 6.65002C21.5194 6.58401 21.5345 6.33795 21.381 6.20802C21.2276 6.07809 21.0011 6.12252 20.8377 6.15786C20.606 6.20795 16.9162 8.53127 9.76818 13.1278C8.72084 13.8129 7.77218 14.1467 6.92222 14.1293C5.98521 14.11 4.18277 13.6245 2.84284 13.2096C1.19937 12.7007 -0.106836 12.4316 0.00690439 11.5673C0.0661476 11.1171 0.716922 10.6567 1.95923 10.1861Z" fill="white"/>
</svg>
