<svg width="56" height="54" viewBox="0 0 56 54" fill="none" xmlns="http://www.w3.org/2000/svg">
<path fill-rule="evenodd" clip-rule="evenodd" d="M24.7048 0.55357C18.0476 1.66402 20.8576 12.735 22.3888 16.8516L23.1998 18.8545C23.3253 19.1298 23.4194 19.2112 23.3128 19.5138C21.6379 24.2705 18.9943 31.1949 16.6891 35.387C16.4647 35.795 16.2714 36.2007 16.0371 36.591C15.5905 37.335 15.838 37.1092 14.9886 37.4559C10.7519 39.1855 3.73902 42.5478 1.33961 46.4117C-1.2844 50.6372 2.81724 54.4299 7.48563 53.2972C11.7147 52.2712 15.3335 47.6528 17.5726 44.6219C18.9081 42.814 20.0832 40.8267 21.2312 38.8837C21.4429 38.5254 21.8517 38.5117 22.537 38.277C25.9818 37.0973 30.8764 35.8927 34.4948 35.2076C35.3081 35.0536 35.0565 34.9863 35.7812 35.5871C38.1549 37.555 41.2002 39.4262 44.2293 40.3294C46.2233 40.924 48.5375 41.394 50.826 41.1261C53.0501 40.8657 54.705 39.8734 55.2893 38.0452C55.6122 37.0348 55.5123 35.784 55.1089 34.8905C52.7764 29.7245 41.88 30.7315 37.1488 31.423C35.9351 31.6003 36.4404 31.7158 35.362 30.6577C34.5899 29.9002 34.2679 29.4842 33.5885 28.7124C32.9621 28.0009 32.0604 26.8286 31.5127 26.0611C30.714 24.9418 29.9918 23.8782 29.2594 22.6858C28.9211 22.1349 28.6285 21.795 28.7516 21.4262C30.1082 17.3631 31.0232 13.5799 31.2489 8.91859C31.3888 6.03192 30.3929 2.47712 27.821 1.09597C27.0043 0.657354 25.7636 0.376982 24.7048 0.55357ZM23.592 34.4481C23.6897 34.4564 27.2841 33.4329 27.7763 33.3085C29.1173 32.9697 30.8389 32.4885 32.2176 32.3075C32.0761 32.0025 31.7896 31.8276 31.5786 31.5524L27.827 26.7006C27.6264 26.3881 27.4671 26.0799 27.2431 25.8341C27.2084 25.8802 27.2341 25.8285 27.1773 25.9397L26.8003 26.9455C26.6557 27.3376 26.5136 27.6826 26.3694 28.0558L24.565 32.4C24.3859 32.7922 23.755 34.2551 23.592 34.4481ZM25.0551 16.0409C25.2919 15.6063 25.7768 13.4931 25.9272 12.8447C26.345 11.044 27.0295 7.37105 26.8664 5.58286C26.7606 4.42244 26.3436 3.12592 25.0588 3.25377C23.0364 3.45499 23.1407 7.64474 23.3649 9.5329C23.506 10.7207 23.7368 11.8419 24.0312 12.9514C24.169 13.471 24.8348 15.7713 25.0551 16.0409ZM14.2609 40.8305C13.812 40.9515 12.9538 41.416 12.5159 41.6214C10.9224 42.3688 8.95608 43.4497 7.55592 44.3742C6.50209 45.0699 1.90969 48.1828 3.73207 50.0591C5.89008 52.2808 11.0584 45.5371 12.2091 43.9089C12.728 43.1746 13.8721 41.5715 14.2609 40.8305ZM38.2399 34.0577C39.011 34.6297 39.7443 35.2 40.6839 35.7529C42.2623 36.6817 44.8728 37.8644 46.7217 38.1312C50.4524 38.6694 51.2796 35.64 49.5608 34.4123C47.567 32.9881 38.7291 33.701 38.2399 34.0577Z" fill="#81996B"/>
</svg>
