<svg width="30" height="30" viewBox="0 0 30 30" fill="none" xmlns="http://www.w3.org/2000/svg">
<path d="M2.09417 22.6564C0.233057 19.5164 -0.417938 15.805 0.263401 12.2191C0.94474 8.63315 2.91156 5.41921 5.79461 3.18063C8.67767 0.942052 12.2787 -0.167209 15.9216 0.0610953C19.5646 0.289399 22.999 1.83957 25.58 4.42058C28.161 7.00159 29.7111 10.4359 29.9394 14.0789C30.1677 17.7219 29.0585 21.3229 26.8199 24.2059C24.5813 27.089 21.3674 29.0558 17.7814 29.7371C14.1955 30.4185 10.4842 29.7675 7.34417 27.9064L2.15667 29.3751C1.94414 29.4373 1.71879 29.4411 1.50426 29.3862C1.28973 29.3314 1.09391 29.2198 0.937329 29.0632C0.780748 28.9066 0.669172 28.7108 0.614295 28.4963C0.559418 28.2817 0.563261 28.0564 0.625422 27.8439L2.09417 22.6564Z" fill="white"/>
</svg>
