<svg width="30" height="19" viewBox="0 0 30 19" fill="none" xmlns="http://www.w3.org/2000/svg">
<path d="M24.2359 10.7476C23.7833 10.1526 23.9128 9.88784 24.2359 9.35598C24.2418 9.34991 27.9787 3.97548 28.3638 2.15284L28.3661 2.15162C28.5574 1.48741 28.3661 0.999268 27.4409 0.999268L24.3795 0.999268C23.6001 0.999268 23.2407 1.4182 23.0482 1.88691C23.0482 1.88691 21.4895 5.7702 19.2844 8.28741C18.5728 9.01477 18.2437 9.24791 17.8552 9.24791C17.6639 9.24791 17.3664 9.01477 17.3664 8.35055V2.15162C17.3664 1.35505 17.1482 0.999268 16.503 0.999268L11.6892 0.999268C11.2003 0.999268 10.9098 1.37084 10.9098 1.71691C10.9098 2.4722 12.0124 2.64584 12.1267 4.77084V9.38148C12.1267 10.3918 11.9505 10.5776 11.5597 10.5776C10.519 10.5776 7.99305 6.67848 6.49617 2.21598C6.19399 1.3502 5.89881 1.00048 5.11362 1.00048L2.05101 1.00048C1.17715 1.00048 1.00098 1.41941 1.00098 1.88812C1.00098 2.71627 2.04168 6.83391 5.84048 12.2739C8.37223 15.9872 11.9377 17.9993 15.1811 17.9993C17.1307 17.9993 17.3687 17.5524 17.3687 16.7838C17.3687 13.2356 17.1925 12.9005 18.1691 12.9005C18.6218 12.9005 19.4011 13.1336 21.2212 14.9247C23.3014 17.0485 23.6433 17.9993 24.8076 17.9993H27.8691C28.7418 17.9993 29.184 17.5524 28.9296 16.6708C28.3474 14.8166 24.4133 11.0026 24.2359 10.7476Z" fill="white" stroke="white" stroke-width="0.7875"/>
</svg>
