<svg width="31" height="30" viewBox="0 0 31 30" fill="none" xmlns="http://www.w3.org/2000/svg">
<path fill-rule="evenodd" clip-rule="evenodd" d="M0.763401 12.2191C0.0820619 15.805 0.733057 19.5164 2.59417 22.6564L1.12542 27.8439C1.06326 28.0564 1.05942 28.2817 1.11429 28.4963C1.16917 28.7108 1.28075 28.9066 1.43733 29.0632C1.59391 29.2198 1.78973 29.3314 2.00426 29.3862C2.21879 29.4411 2.44414 29.4373 2.65667 29.3751L7.84417 27.9064C10.9842 29.7675 14.6955 30.4185 18.2814 29.7371C21.8674 29.0558 25.0813 27.089 27.3199 24.2059C29.5585 21.3229 30.6677 17.7219 30.4394 14.0789C30.2111 10.4359 28.661 7.00159 26.08 4.42058C23.499 1.83957 20.0646 0.289399 16.4216 0.0610953C12.7787 -0.167209 9.17767 0.942052 6.29461 3.18063C3.41156 5.41921 1.44474 8.63315 0.763401 12.2191ZM14.4713 22.8057C15.9916 23.4332 17.6209 23.7542 19.2657 23.75C20.422 23.7418 21.5284 23.2777 22.3446 22.4586C23.1608 21.6395 23.621 20.5314 23.625 19.375C23.6266 19.184 23.5766 18.9962 23.4803 18.8312C23.3841 18.6662 23.2452 18.5302 23.0782 18.4375L19.8907 16.6094C19.6969 16.5007 19.4779 16.4449 19.2558 16.4476C19.0336 16.4504 18.8161 16.5116 18.625 16.625L16.1719 18.0938C14.4983 17.3415 13.1586 16.0017 12.4063 14.3282L13.875 11.875C13.9885 11.684 14.0497 11.4665 14.0524 11.2443C14.0552 11.0222 13.9994 10.8032 13.8907 10.6094L12.0625 7.42191C11.9699 7.25491 11.8339 7.11597 11.6689 7.01973C11.5039 6.9235 11.316 6.87351 11.125 6.87503C9.96742 6.87503 8.85698 7.33382 8.03696 8.15091C7.21693 8.96801 6.75417 10.0768 6.75004 11.2344C6.74592 12.8791 7.06683 14.5085 7.69434 16.0288C8.32185 17.5491 9.24358 18.9305 10.4066 20.0935C11.5696 21.2565 12.9509 22.1782 14.4713 22.8057Z" fill="white"/>
</svg>
