<svg width="249" height="99" viewBox="0 0 249 99" fill="none" xmlns="http://www.w3.org/2000/svg">
<rect width="249" height="50.186" rx="19.3023" fill="#576748"/>
<path d="M23.8433 14.3326C23.8433 14.7201 23.7787 15.2044 23.6496 15.7855C23.542 16.3451 23.359 16.9478 23.1007 17.5935C22.864 18.2177 22.5626 18.8419 22.1967 19.4661C21.8308 20.0903 21.4003 20.65 20.9053 21.145C20.4317 21.6185 19.8829 22.0167 19.2587 22.3396C18.656 22.6409 17.9887 22.7808 17.2569 22.7593C16.0946 22.7593 15.1798 22.4257 14.5126 21.7584C13.8453 21.0912 13.5117 20.1764 13.5117 19.0141C13.5117 18.0455 13.7808 17.0662 14.3189 16.0761C14.857 15.0644 15.5673 14.1604 16.4498 13.364C17.3323 12.5461 18.3331 11.8896 19.4524 11.3946C20.5716 10.878 21.7017 10.6197 22.8424 10.6197C23.7464 10.6197 24.446 10.7381 24.941 10.9749C25.4576 11.1901 25.8558 11.4807 26.1356 11.8466C26.4154 12.191 26.6199 12.5676 26.7491 12.9766C26.8997 13.3856 27.0504 13.773 27.2011 14.1389C27.3517 14.5048 27.5455 14.8277 27.7822 15.1075C28.0405 15.3658 28.4279 15.5272 28.9445 15.5918C29.1598 15.1828 29.4719 14.6985 29.8808 14.1389C30.2898 13.5578 30.7418 13.0089 31.2368 12.4923C31.7534 11.9757 32.2808 11.5345 32.8189 11.1686C33.3785 10.8027 33.9058 10.6197 34.4009 10.6197C34.7668 10.6197 35.0681 10.7166 35.3049 10.9103C35.5417 11.104 35.6601 11.4376 35.6601 11.9112C35.6601 12.2986 35.5094 12.7291 35.208 13.2026C34.9067 13.6761 34.4978 14.1281 33.9812 14.5586C33.4861 14.9676 32.905 15.3227 32.2377 15.6241C31.592 15.9254 30.9032 16.1084 30.1714 16.1729C29.5257 19.1863 28.5248 22.0813 27.1688 24.8579C25.8343 27.613 24.1877 30.1851 22.229 32.5743L22.2936 32.6389C23.9079 31.5412 25.4146 30.3143 26.8136 28.9583C28.2127 27.6023 29.558 26.2032 30.8494 24.7611C32.1409 23.2974 33.3893 21.823 34.5946 20.3379C35.8 18.8312 37.0053 17.3783 38.2107 15.9792C39.8895 14.0636 41.224 12.6968 42.2142 11.8789C43.2043 11.0394 43.9899 10.6197 44.5711 10.6197C44.937 10.6197 45.2491 10.7489 45.5073 11.0071C45.7872 11.2439 45.9271 11.5345 45.9271 11.8789C45.9271 12.1587 45.8302 12.4277 45.6365 12.686C45.4643 12.9443 45.2275 13.0735 44.9262 13.0735C44.6679 13.0735 44.4634 13.0304 44.3128 12.9443C44.1836 12.8582 44.0652 12.7614 43.9576 12.6537C43.85 12.5461 43.7208 12.4493 43.5702 12.3632C43.441 12.2771 43.2581 12.234 43.0213 12.234C42.5693 12.234 41.9451 12.6107 41.1487 13.364C40.3523 14.1174 39.4483 15.0752 38.4367 16.2375C37.4466 17.3783 36.3811 18.6375 35.2403 20.015C34.1211 21.3925 33.0233 22.7055 31.9471 23.9539C30.4835 25.6328 29.1167 27.0857 27.8468 28.3125C26.5769 29.5394 25.4576 30.5618 24.489 31.3797C23.542 32.1761 22.7671 32.768 22.1644 33.1555C21.5833 33.5429 21.2496 33.7366 21.1635 33.7366C20.9698 33.7366 20.873 33.6505 20.873 33.4783C20.873 33.3492 20.916 33.2523 21.0021 33.1878C21.0882 33.1232 21.2174 33.0263 21.3896 32.8972C21.9061 32.4882 22.3904 31.8748 22.8424 31.0569C23.316 30.2174 23.7572 29.2811 24.1662 28.248C24.5966 27.2148 24.9948 26.1171 25.3608 24.9548C25.7482 23.771 26.1249 22.6302 26.4908 21.5324C26.8567 20.4347 27.2118 19.4123 27.5562 18.4653C27.9221 17.5182 28.2988 16.7326 28.6862 16.1084C27.7822 15.9146 27.0719 15.6564 26.5553 15.3335C26.0603 14.9891 25.6621 14.634 25.3608 14.2681C25.0594 13.9021 24.8227 13.5362 24.6505 13.1703C24.4998 12.7829 24.3276 12.4493 24.1339 12.1694C23.9617 11.8681 23.7357 11.6206 23.4559 11.4269C23.1761 11.2331 22.7671 11.1363 22.229 11.1363C21.368 11.1363 20.4533 11.3515 19.4847 11.782C18.5161 12.2125 17.6228 12.7936 16.8049 13.5255C16.0085 14.2358 15.3413 15.0644 14.8032 16.0115C14.2866 16.937 14.0283 17.9056 14.0283 18.9173C14.0283 19.8858 14.2435 20.6284 14.674 21.145C15.1045 21.6616 15.7395 21.9199 16.5789 21.9199C17.3968 21.9199 18.2578 21.6616 19.1618 21.145C20.0658 20.6069 20.8407 19.8536 21.4864 18.885C21.9169 18.2393 22.2613 17.6258 22.5196 17.0447C22.7779 16.4635 22.9823 15.9577 23.133 15.5272C23.2837 15.0967 23.3913 14.7523 23.4559 14.4941C23.5204 14.2358 23.5743 14.1066 23.6173 14.1066C23.768 14.1066 23.8433 14.182 23.8433 14.3326ZM35.2726 11.7497C35.2726 11.5345 35.208 11.3623 35.0789 11.2331C34.9498 11.0825 34.7345 11.0071 34.4332 11.0071C33.9381 11.0071 33.4646 11.1793 33.0126 11.5237C32.5821 11.8466 32.1839 12.2555 31.818 12.7506C31.4521 13.2241 31.1292 13.7299 30.8494 14.2681C30.5911 14.8062 30.4082 15.2689 30.3005 15.6564C31.0108 15.5918 31.6673 15.4304 32.27 15.1721C32.8942 14.9138 33.4215 14.6017 33.852 14.2358C34.304 13.8483 34.6484 13.4394 34.8852 13.0089C35.1435 12.5784 35.2726 12.1587 35.2726 11.7497Z" fill="white"/>
<path d="M37.317 33.1555C36.908 33.1555 36.5636 33.0694 36.2838 32.8972C36.0255 32.725 35.8211 32.5098 35.6704 32.2515C35.5197 31.9717 35.4121 31.6596 35.3475 31.3152C35.3045 30.9493 35.283 30.5833 35.283 30.2174C35.283 29.9591 35.2937 29.7116 35.3152 29.4749C35.3583 29.2166 35.4013 28.9583 35.4444 28.7C35.4013 28.7 35.3691 28.7215 35.3475 28.7646C35.326 28.7861 35.2937 28.7968 35.2507 28.7968C35.1646 28.7968 35.1215 28.743 35.1215 28.6354C35.1215 28.5708 35.1538 28.5063 35.2184 28.4417C35.283 28.3771 35.4229 28.2157 35.6381 27.9574C36.0686 27.4193 36.5529 26.9242 37.091 26.4722C37.6291 26.0202 38.178 25.622 38.7376 25.2776C39.3187 24.9333 39.8999 24.6642 40.481 24.4705C41.0837 24.2768 41.6649 24.1799 42.2245 24.1799C42.7196 24.1799 43.0747 24.3413 43.2899 24.6642C43.5052 24.9655 43.6128 25.3315 43.6128 25.7619C43.6128 26.1494 43.5805 26.4399 43.5159 26.6337L43.5805 26.6982C43.8603 26.2462 44.0756 25.8696 44.2262 25.5682C44.3984 25.2669 44.5383 25.0409 44.646 24.8902C44.7536 24.718 44.8504 24.5996 44.9365 24.5351C45.0442 24.449 45.1841 24.4059 45.3563 24.4059L46.906 24.3413C46.7553 24.5135 46.5293 24.8149 46.228 25.2454C45.9482 25.6543 45.6361 26.1279 45.2917 26.666C44.9473 27.1825 44.5922 27.7314 44.2262 28.3125C43.8819 28.8937 43.559 29.4533 43.2577 29.9914C42.9563 30.5295 42.7088 31.0031 42.5151 31.412C42.3429 31.821 42.2568 32.1223 42.2568 32.316C42.2568 32.6174 42.4397 32.768 42.8056 32.768C43.3007 32.768 43.9464 32.4021 44.7428 31.6703C45.5607 30.917 46.4432 29.9914 47.3903 28.8937C47.584 28.6569 47.7024 28.517 47.7454 28.474C47.7885 28.4094 47.8315 28.3771 47.8746 28.3771C47.9392 28.3771 47.9822 28.3986 48.0037 28.4417C48.0468 28.4847 48.0683 28.5278 48.0683 28.5708C48.0683 28.5924 48.0037 28.6785 47.8746 28.8291C47.767 28.9583 47.6271 29.1197 47.4549 29.3134C47.2827 29.5071 47.089 29.7224 46.8737 29.9591C46.68 30.1959 46.4863 30.4112 46.2926 30.6049C45.5392 31.3797 44.8612 32.0039 44.2585 32.4775C43.6559 32.9295 43.1393 33.1555 42.7088 33.1555C42.2783 33.1555 41.9339 33.0048 41.6756 32.7035C41.4173 32.4021 41.2882 31.8102 41.2882 30.9277C41.2882 30.8201 41.2882 30.7233 41.2882 30.6372C41.3097 30.5295 41.3205 30.4327 41.3205 30.3466C41.0837 30.5833 40.7931 30.8632 40.4488 31.186C40.1259 31.5089 39.7815 31.821 39.4156 32.1223C39.0497 32.4021 38.6838 32.6497 38.3179 32.8649C37.952 33.0586 37.6183 33.1555 37.317 33.1555ZM36.5744 31.7349C36.5744 32.0362 36.6282 32.2838 36.7358 32.4775C36.865 32.6712 37.0587 32.768 37.317 32.768C37.7905 32.768 38.3609 32.5205 39.0282 32.0255C39.6954 31.5089 40.3411 30.8847 40.9653 30.1529C41.5895 29.421 42.1169 28.6569 42.5474 27.8605C42.9994 27.0426 43.2254 26.3323 43.2254 25.7297C43.2254 25.4068 43.1393 25.1377 42.9671 24.9225C42.8164 24.6857 42.5689 24.5674 42.2245 24.5674C41.5788 24.5674 40.9115 24.8364 40.2228 25.3745C39.5555 25.8911 38.9528 26.526 38.4147 27.2794C37.8766 28.0327 37.4354 28.8184 37.091 29.6363C36.7466 30.4542 36.5744 31.1537 36.5744 31.7349Z" fill="white"/>
<path d="M60.1005 13.7192C57.9911 17.0339 56.2261 19.7998 54.8055 22.0167C53.4065 24.2337 52.2657 26.0525 51.3832 27.4731C50.5222 28.8722 49.9088 29.9484 49.5429 30.7017C49.177 31.4335 48.994 31.9824 48.994 32.3483C48.994 32.4559 49.0371 32.5528 49.1231 32.6389C49.2308 32.725 49.3599 32.768 49.5106 32.768C50.0056 32.768 50.5437 32.5636 51.1249 32.1546C51.7276 31.7456 52.4379 31.1322 53.2558 30.3143C53.9876 29.5825 54.4504 29.0767 54.6441 28.7968C54.8593 28.4955 55.01 28.3448 55.0961 28.3448C55.2037 28.3448 55.2575 28.3986 55.2575 28.5063C55.2575 28.5278 55.2145 28.5924 55.1284 28.7C55.0423 28.8076 54.9347 28.9368 54.8055 29.0874C54.6764 29.2381 54.5365 29.3888 54.3858 29.5394C54.2567 29.6901 54.1383 29.83 54.0306 29.9591C53.0836 30.9708 52.2334 31.7564 51.48 32.316C50.7267 32.8757 50.0379 33.1555 49.4137 33.1555C48.8541 33.1555 48.4774 32.9941 48.2837 32.6712C48.1115 32.3483 48.0254 31.9717 48.0254 31.5412C48.0254 31.0676 48.09 30.6372 48.2191 30.2497C48.3483 29.8408 48.5528 29.4103 48.8326 28.9583C49.1124 28.4847 49.4568 27.9466 49.8657 27.344C50.2747 26.7198 50.759 25.9449 51.3186 25.0194L51.254 24.9548C50.9742 25.2776 50.6836 25.622 50.3823 25.9879C50.081 26.3539 49.6613 26.8274 49.1231 27.4085C48.8218 27.7529 48.5743 28.0327 48.3806 28.248C48.2084 28.4417 48.0685 28.6031 47.9608 28.7323C47.8532 28.8399 47.7779 28.9152 47.7348 28.9583C47.6918 28.9798 47.6487 28.9906 47.6057 28.9906C47.5196 28.9906 47.4766 28.9368 47.4766 28.8291C47.4766 28.7646 47.6703 28.517 48.0577 28.0865C48.4667 27.6561 48.9832 27.0749 49.6074 26.3431C50.2532 25.5897 50.9635 24.7073 51.7383 23.6956C52.5347 22.6625 53.3204 21.5217 54.0952 20.2733L57.9696 13.9452L60.1005 13.7192Z" fill="white"/>
<path d="M63.2219 25.7297C63.2219 26.3323 62.9636 26.8812 62.447 27.3762C61.9304 27.8498 61.317 28.2695 60.6067 28.6354C59.8964 28.9798 59.1646 29.2704 58.4112 29.5071C57.6579 29.7439 57.0444 29.9053 56.5709 29.9914C56.5279 30.1636 56.4956 30.3466 56.4741 30.5403C56.4525 30.7125 56.4418 30.8847 56.4418 31.0569C56.4418 31.6811 56.5386 32.1223 56.7323 32.3806C56.9476 32.6174 57.3027 32.7465 57.7978 32.768C58.2283 32.7896 58.8417 32.6174 59.6381 32.2515C60.4345 31.864 61.3278 31.186 62.3179 30.2174C62.9421 29.5717 63.3618 29.0982 63.577 28.7968C63.8138 28.4955 63.9645 28.3448 64.029 28.3448C64.1367 28.3448 64.1905 28.4094 64.1905 28.5386C64.1905 28.5816 64.1151 28.6892 63.9645 28.8614C63.8353 29.0336 63.6631 29.2488 63.4479 29.5071C63.2326 29.7439 62.9851 30.0022 62.7053 30.282C62.447 30.5618 62.1995 30.8094 61.9627 31.0246C61.1448 31.7779 60.3915 32.316 59.7027 32.6389C59.0354 32.9618 58.3251 33.134 57.5718 33.1555C57.1198 33.1555 56.7323 33.0586 56.4095 32.8649C56.1082 32.6712 55.8499 32.4129 55.6346 32.09C55.4194 31.7672 55.2579 31.4013 55.1503 30.9923C55.0642 30.5833 55.0212 30.1636 55.0212 29.7331C55.0212 29.4964 55.0319 29.2919 55.0535 29.1197C55.0965 28.9475 55.118 28.8399 55.118 28.7968C55.118 28.7753 55.1073 28.7538 55.0858 28.7323C55.0212 28.7968 54.9889 28.8291 54.9889 28.8291C54.9674 28.8291 54.9351 28.8076 54.892 28.7646C54.849 28.7215 54.8275 28.6785 54.8275 28.6354C54.8275 28.6139 54.8705 28.5386 54.9566 28.4094C55.0642 28.2803 55.1826 28.1404 55.3118 27.9897C55.4624 27.839 55.6023 27.6991 55.7315 27.57C55.8606 27.4193 55.9575 27.3117 56.022 27.2471C56.9261 26.3431 57.8624 25.6113 58.831 25.0516C59.7995 24.4705 60.7251 24.1799 61.6076 24.1799C62.1026 24.1799 62.4901 24.3306 62.7699 24.6319C63.0712 24.9117 63.2219 25.2776 63.2219 25.7297ZM61.6076 24.5674C61.1771 24.5674 60.7036 24.7503 60.187 25.1162C59.6704 25.4606 59.1646 25.8911 58.6695 26.4077C58.196 26.9242 57.7763 27.4731 57.4104 28.0543C57.0444 28.6354 56.8077 29.152 56.7001 29.604C57.2382 29.5394 57.8301 29.3888 58.4758 29.152C59.1215 28.8937 59.7242 28.5708 60.2838 28.1834C60.8435 27.7744 61.3062 27.3224 61.6721 26.8274C62.0596 26.3108 62.2533 25.7619 62.2533 25.1808C62.2533 24.7718 62.0381 24.5674 61.6076 24.5674Z" fill="white"/>
<path d="M64.2977 33.1555C64.4053 32.9618 64.599 32.6497 64.8788 32.2192C65.1802 31.7887 65.5245 31.3044 65.912 30.7663C66.2994 30.2067 66.6976 29.6255 67.1066 29.0228C67.537 28.4202 67.9245 27.8605 68.2689 27.344C68.6133 26.8059 68.8931 26.3323 69.1083 25.9234C69.3451 25.5144 69.4635 25.2238 69.4635 25.0516C69.4635 24.8794 69.4096 24.7611 69.302 24.6965C69.2159 24.6104 69.1083 24.5674 68.9792 24.5674C68.5272 24.5674 68.0429 24.7611 67.5263 25.1485C67.0312 25.5144 66.3747 26.1494 65.5568 27.0534C65.1694 27.4623 64.8681 27.7852 64.6528 28.022C64.4591 28.2587 64.3084 28.4417 64.2008 28.5708C64.1147 28.6785 64.0501 28.7538 64.0071 28.7968C63.9856 28.8184 63.964 28.8291 63.9425 28.8291C63.8349 28.8291 63.7811 28.7646 63.7811 28.6354C63.7811 28.6139 63.8241 28.5493 63.9102 28.4417C63.9963 28.3126 64.1039 28.1834 64.2331 28.0543C64.3622 27.9036 64.4914 27.7529 64.6205 27.6023C64.7712 27.4301 64.9003 27.2794 65.008 27.1502C65.7828 26.2462 66.5039 25.5252 67.1711 24.9871C67.8384 24.449 68.4841 24.1799 69.1083 24.1799C69.5388 24.1799 69.8401 24.3198 70.0123 24.5996C70.206 24.8795 70.3029 25.2669 70.3029 25.7619C70.3029 26.0848 70.2276 26.4399 70.0769 26.8274C69.9262 27.1933 69.7433 27.5592 69.528 27.9251C69.3343 28.291 69.1191 28.6462 68.8823 28.9906C68.6455 29.3134 68.4411 29.5932 68.2689 29.83L68.3334 29.8946C68.6563 29.5932 69.0975 29.1305 69.6572 28.5063C70.2383 27.8605 70.8518 27.2256 71.4975 26.6014C72.1432 25.9557 72.7782 25.396 73.4024 24.9225C74.0266 24.4274 74.5432 24.1799 74.9521 24.1799C75.3611 24.1799 75.6516 24.3521 75.8238 24.6965C76.0176 25.0194 76.1144 25.353 76.1144 25.6974C76.1144 26.257 75.9853 26.7736 75.727 27.2471C75.4687 27.6991 75.1996 28.1081 74.9198 28.474C73.4777 30.4327 72.7566 31.6488 72.7566 32.1223C72.7566 32.2945 72.7997 32.4452 72.8858 32.5743C72.9719 32.7035 73.101 32.768 73.2732 32.768C73.6391 32.768 74.1342 32.5205 74.7584 32.0255C75.3826 31.5089 76.0283 30.8954 76.6956 30.1852C77.1045 29.7547 77.4166 29.421 77.6319 29.1843C77.8471 28.926 77.9978 28.743 78.0839 28.6354C78.1915 28.5063 78.2561 28.4309 78.2776 28.4094C78.3206 28.3664 78.3637 28.3448 78.4067 28.3448C78.4928 28.3448 78.5359 28.3986 78.5359 28.5063C78.5359 28.5493 78.4498 28.6785 78.2776 28.8937C78.1054 29.1089 77.9009 29.3457 77.6642 29.604C77.4489 29.8623 77.2229 30.1098 76.9861 30.3466C76.7709 30.5833 76.6095 30.7555 76.5019 30.8632C75.7916 31.5735 75.1566 32.1331 74.597 32.542C74.0373 32.951 73.5746 33.1555 73.2087 33.1555C72.7136 33.1555 72.3477 32.9618 72.1109 32.5743C71.8957 32.1654 71.7881 31.6703 71.7881 31.0892C71.7881 30.4434 71.971 29.8085 72.3369 29.1843C72.7028 28.5386 73.101 27.9466 73.5315 27.4085C73.962 26.8489 74.3602 26.3539 74.7261 25.9234C75.092 25.4929 75.275 25.17 75.275 24.9548C75.275 24.6965 75.1243 24.5674 74.823 24.5674C74.5647 24.5674 74.1988 24.7395 73.7252 25.0839C73.2517 25.4283 72.7351 25.8696 72.1755 26.4077C71.6159 26.9458 71.0347 27.5484 70.432 28.2157C69.8294 28.8614 69.259 29.4964 68.7209 30.1206C68.1828 30.7448 67.7092 31.3152 67.3003 31.8317C66.8913 32.3268 66.6115 32.7035 66.4608 32.9618L64.2977 33.1555Z" fill="white"/>
<path d="M85.8434 18.1747L87.8452 18.0455L85.7466 21.2742H89.524C89.6317 21.2742 89.6855 21.3387 89.6855 21.4679C89.6855 21.597 89.6317 21.6616 89.524 21.6616H85.5205C85.3484 21.9629 85.0793 22.4042 84.7134 22.9853C84.3475 23.545 83.9385 24.1799 83.4865 24.8902C83.0345 25.579 82.561 26.3108 82.0659 27.0857C81.5924 27.8605 81.1511 28.5924 80.7422 29.2811C80.3548 29.9484 80.0319 30.5618 79.7736 31.1215C79.5153 31.6596 79.3862 32.047 79.3862 32.2838C79.3862 32.6066 79.5906 32.768 79.9996 32.768C80.4947 32.768 81.022 32.5743 81.5816 32.1869C82.1628 31.7779 82.8193 31.2075 83.5511 30.4757C83.96 30.0668 84.2829 29.7331 84.5197 29.4749C84.778 29.195 84.9717 28.9798 85.1008 28.8291C85.2515 28.6569 85.3484 28.5386 85.3914 28.474C85.456 28.3879 85.5098 28.3448 85.5528 28.3448C85.6604 28.3448 85.7143 28.4094 85.7143 28.5386C85.7143 28.5601 85.6497 28.6462 85.5205 28.7968C85.4129 28.9475 85.273 29.1197 85.1008 29.3134C84.9286 29.5071 84.7349 29.7116 84.5197 29.9269C84.326 30.1421 84.143 30.3358 83.9708 30.508C82.9807 31.4981 82.1735 32.1869 81.5493 32.5743C80.9251 32.9618 80.387 33.1555 79.935 33.1555C79.3754 33.134 78.9772 32.9618 78.7404 32.6389C78.5252 32.2945 78.4176 31.9394 78.4176 31.5735C78.4176 31.1214 78.4822 30.6802 78.6113 30.2497C78.7404 29.7977 78.9342 29.3349 79.1925 28.8614C79.4507 28.3664 79.7628 27.8498 80.1288 27.3117C80.5162 26.7521 80.9467 26.1278 81.4202 25.4391L81.3556 25.3745C81.0543 25.7404 80.753 26.0848 80.4516 26.4077C80.1718 26.7305 79.8167 27.1395 79.3862 27.6345C79.3216 27.7206 79.214 27.839 79.0633 27.9897C78.9342 28.1404 78.805 28.291 78.6759 28.4417C78.5467 28.5924 78.4283 28.7323 78.3207 28.8614C78.2131 28.969 78.1485 29.0228 78.127 29.0228C78.0194 29.0228 77.9656 28.9798 77.9656 28.8937C77.9656 28.8722 77.9763 28.8399 77.9979 28.7968C78.0194 28.7323 78.0732 28.6462 78.1593 28.5386C78.2669 28.4309 78.4068 28.2803 78.579 28.0865C78.7727 27.8713 79.031 27.5807 79.3539 27.2148C79.5906 26.9565 79.8812 26.6229 80.2256 26.2139C80.5915 25.805 80.9682 25.353 81.3556 24.8579C81.7646 24.3629 82.1735 23.8463 82.5825 23.3082C83.013 22.7486 83.4112 22.1997 83.7771 21.6616H82.6148C82.5072 21.6616 82.4534 21.597 82.4534 21.4679C82.4534 21.3387 82.4964 21.2742 82.5825 21.2742H83.9385L85.8434 18.1747Z" fill="white"/>
<path d="M87.1891 33.1555C86.694 33.1555 86.3066 33.0048 86.0268 32.7035C85.7685 32.3806 85.6393 31.9717 85.6393 31.4766C85.6393 30.9385 85.747 30.4004 85.9622 29.8623C86.1775 29.3242 86.4357 28.7968 86.7371 28.2803C87.0599 27.7637 87.3936 27.2686 87.738 26.7951C88.1039 26.3216 88.4267 25.8803 88.7065 25.4714L88.642 25.4068C88.4482 25.6005 88.1361 25.9234 87.7057 26.3754C87.2752 26.8274 86.6725 27.4946 85.8976 28.3771C85.7254 28.5708 85.6178 28.6892 85.5748 28.7323C85.5317 28.7753 85.4887 28.7968 85.4456 28.7968C85.3595 28.7968 85.3165 28.7323 85.3165 28.6031C85.3165 28.5601 85.3703 28.4847 85.4779 28.3771C85.5855 28.248 85.8546 27.9359 86.2851 27.4408C86.5003 27.2041 86.7371 26.9458 86.9954 26.666C87.2752 26.3646 87.5442 26.074 87.8025 25.7942C88.0608 25.4929 88.2976 25.2131 88.5128 24.9548C88.7496 24.6965 88.9325 24.4813 89.0617 24.3091L91.0957 24.1799C90.1271 25.7727 89.3415 27.0534 88.7388 28.022C88.1577 28.969 87.7057 29.7224 87.3828 30.282C87.0815 30.8201 86.877 31.2183 86.7694 31.4766C86.6617 31.7134 86.6079 31.9178 86.6079 32.09C86.6079 32.3699 86.6725 32.5528 86.8017 32.6389C86.9308 32.725 87.0707 32.768 87.2214 32.768C87.4797 32.768 87.7595 32.6927 88.0608 32.542C88.3621 32.3914 88.6742 32.2084 88.9971 31.9932C89.32 31.7564 89.6321 31.4981 89.9334 31.2183C90.2563 30.9385 90.5469 30.6587 90.8051 30.3789C91.0204 30.1636 91.2356 29.9376 91.4509 29.7009C91.6876 29.4426 91.8921 29.2058 92.0643 28.9906C92.258 28.7753 92.4194 28.6031 92.5486 28.474C92.6777 28.3233 92.7531 28.248 92.7746 28.248C92.9037 28.248 92.9683 28.3018 92.9683 28.4094C92.9683 28.4525 92.8069 28.6677 92.484 29.0551C92.1827 29.421 91.6876 29.9591 90.9989 30.6694C89.4061 32.3268 88.1361 33.1555 87.1891 33.1555ZM92.2257 19.0787C92.2257 18.7989 92.3226 18.5298 92.5163 18.2715C92.71 17.9917 92.9898 17.8518 93.3557 17.8518C93.5925 17.8518 93.7755 17.9379 93.9046 18.1101C94.0338 18.2608 94.0983 18.4545 94.0983 18.6913C94.0983 18.9711 94.0015 19.2509 93.8078 19.5307C93.614 19.789 93.3342 19.9181 92.9683 19.9181C92.7315 19.9181 92.5486 19.8428 92.4194 19.6921C92.2903 19.5199 92.2257 19.3155 92.2257 19.0787Z" fill="white"/>
<path d="M92.958 33.1555C93.0656 32.9618 93.2593 32.6497 93.5391 32.2192C93.8405 31.7887 94.1849 31.3044 94.5723 30.7663C94.9597 30.2067 95.3579 29.6255 95.7669 29.0228C96.1974 28.4202 96.5848 27.8605 96.9292 27.344C97.2736 26.8059 97.5534 26.3323 97.7686 25.9234C98.0054 25.5144 98.1238 25.2238 98.1238 25.0516C98.1238 24.8794 98.07 24.7611 97.9623 24.6965C97.8762 24.6104 97.7686 24.5674 97.6395 24.5674C97.1875 24.5674 96.7032 24.7611 96.1866 25.1485C95.6916 25.5144 95.0351 26.1494 94.2171 27.0534C93.8297 27.4623 93.5284 27.7852 93.3131 28.022C93.1194 28.2587 92.9687 28.4417 92.8611 28.5708C92.775 28.6785 92.7105 28.7538 92.6674 28.7968C92.6459 28.8184 92.6244 28.8291 92.6028 28.8291C92.4952 28.8291 92.4414 28.7646 92.4414 28.6354C92.4414 28.6139 92.4845 28.5493 92.5705 28.4417C92.6566 28.3126 92.7643 28.1834 92.8934 28.0543C93.0226 27.9036 93.1517 27.7529 93.2808 27.6023C93.4315 27.4301 93.5607 27.2794 93.6683 27.1502C94.4431 26.2462 95.1642 25.5252 95.8315 24.9871C96.4987 24.449 97.1444 24.1799 97.7686 24.1799C98.1991 24.1799 98.5005 24.3198 98.6726 24.5996C98.8664 24.8795 98.9632 25.2669 98.9632 25.7619C98.9632 26.0848 98.8879 26.4399 98.7372 26.8274C98.5865 27.1933 98.4036 27.5592 98.1883 27.9251C97.9946 28.291 97.7794 28.6462 97.5426 28.9906C97.3059 29.3134 97.1014 29.5932 96.9292 29.83L96.9938 29.8946C97.3166 29.5932 97.7579 29.1305 98.3175 28.5063C98.8986 27.8605 99.5121 27.2256 100.158 26.6014C100.804 25.9557 101.438 25.396 102.063 24.9225C102.687 24.4274 103.203 24.1799 103.612 24.1799C104.021 24.1799 104.312 24.3521 104.484 24.6965C104.678 25.0194 104.775 25.353 104.775 25.6974C104.775 26.257 104.646 26.7736 104.387 27.2471C104.129 27.6991 103.86 28.1081 103.58 28.474C102.138 30.4327 101.417 31.6488 101.417 32.1223C101.417 32.2945 101.46 32.4452 101.546 32.5743C101.632 32.7035 101.761 32.768 101.934 32.768C102.299 32.768 102.795 32.5205 103.419 32.0255C104.043 31.5089 104.689 30.8954 105.356 30.1852C105.765 29.7547 106.077 29.421 106.292 29.1843C106.507 28.926 106.658 28.743 106.744 28.6354C106.852 28.5063 106.916 28.4309 106.938 28.4094C106.981 28.3664 107.024 28.3448 107.067 28.3448C107.153 28.3448 107.196 28.3986 107.196 28.5063C107.196 28.5493 107.11 28.6785 106.938 28.8937C106.766 29.1089 106.561 29.3457 106.324 29.604C106.109 29.8623 105.883 30.1098 105.646 30.3466C105.431 30.5833 105.27 30.7555 105.162 30.8632C104.452 31.5735 103.817 32.1331 103.257 32.542C102.698 32.951 102.235 33.1555 101.869 33.1555C101.374 33.1555 101.008 32.9618 100.771 32.5743C100.556 32.1654 100.448 31.6703 100.448 31.0892C100.448 30.4434 100.631 29.8085 100.997 29.1843C101.363 28.5386 101.761 27.9466 102.192 27.4085C102.622 26.8489 103.021 26.3539 103.386 25.9234C103.752 25.4929 103.935 25.17 103.935 24.9548C103.935 24.6965 103.785 24.5674 103.483 24.5674C103.225 24.5674 102.859 24.7395 102.386 25.0839C101.912 25.4283 101.395 25.8696 100.836 26.4077C100.276 26.9458 99.695 27.5484 99.0924 28.2157C98.4897 28.8614 97.9193 29.4964 97.3812 30.1206C96.8431 30.7448 96.3696 31.3152 95.9606 31.8317C95.5516 32.3268 95.2718 32.7035 95.1212 32.9618L92.958 33.1555Z" fill="white"/>
<path d="M115.795 26.4077C115.795 26.7305 115.741 27.0857 115.634 27.4731C115.526 27.839 115.375 28.2049 115.182 28.5708C115.01 28.9152 114.805 29.2596 114.568 29.604C114.353 29.9269 114.127 30.2067 113.89 30.4434C113.976 30.4865 114.095 30.508 114.245 30.508C114.805 30.508 115.343 30.3681 115.86 30.0883C116.376 29.787 116.839 29.3995 117.248 28.926C117.463 28.6892 117.592 28.5386 117.635 28.474C117.7 28.4094 117.754 28.3771 117.797 28.3771C117.905 28.3771 117.958 28.4309 117.958 28.5386C117.958 28.5816 117.915 28.6569 117.829 28.7646C117.743 28.8722 117.517 29.1197 117.151 29.5071C116.742 29.9376 116.258 30.282 115.698 30.5403C115.16 30.7771 114.579 30.8954 113.955 30.8954C113.74 30.8954 113.6 30.8847 113.535 30.8632C113.04 31.4228 112.448 31.9501 111.759 32.4452C111.092 32.9187 110.307 33.1555 109.403 33.1555C108.757 33.1555 108.262 32.8972 107.917 32.3806C107.573 31.864 107.401 31.1645 107.401 30.282C107.401 29.7009 107.422 29.3027 107.465 29.0874C107.53 28.8722 107.562 28.7107 107.562 28.6031C107.562 28.474 107.53 28.4094 107.465 28.4094C107.336 28.4094 107.218 28.4955 107.11 28.6677C107.003 28.8399 106.927 28.926 106.884 28.926C106.755 28.926 106.69 28.8722 106.69 28.7646C106.69 28.7215 106.744 28.6247 106.852 28.474C106.981 28.3233 107.142 28.1511 107.336 27.9574C107.53 27.7637 107.734 27.5592 107.95 27.344C108.165 27.1287 108.369 26.9242 108.563 26.7305C109.51 25.8265 110.446 25.1808 111.372 24.7934C112.298 24.3844 113.126 24.1799 113.858 24.1799C114.482 24.1799 114.956 24.3952 115.279 24.8256C115.623 25.2346 115.795 25.7619 115.795 26.4077ZM115.085 26.0202C115.085 25.6328 114.999 25.2992 114.827 25.0194C114.654 24.718 114.364 24.5674 113.955 24.5674C113.395 24.5674 112.803 24.8041 112.179 25.2776C111.555 25.7512 110.985 26.3431 110.468 27.0534C109.951 27.7637 109.521 28.5278 109.176 29.3457C108.854 30.1636 108.692 30.9062 108.692 31.5735C108.692 32.0255 108.768 32.3376 108.918 32.5098C109.09 32.6819 109.295 32.768 109.532 32.768C110.177 32.768 110.823 32.5528 111.469 32.1223C112.136 31.6918 112.728 31.1537 113.245 30.508C113.783 29.8408 114.224 29.1089 114.568 28.3125C114.913 27.5162 115.085 26.7521 115.085 26.0202Z" fill="white"/>
<path d="M148.48 21.4033C149.083 21.5324 149.642 21.7477 150.159 22.049C150.697 22.3288 151.16 22.6732 151.547 23.0822C151.956 23.4911 152.279 23.9647 152.516 24.5028C152.752 25.0409 152.871 25.6328 152.871 26.2785C152.871 27.2471 152.623 28.1619 152.128 29.0228C151.633 29.8623 150.998 30.6049 150.223 31.2506C149.47 31.8963 148.62 32.4129 147.673 32.8003C146.726 33.1662 145.8 33.3492 144.896 33.3492C144.401 33.3492 143.928 33.2739 143.476 33.1232C143.045 32.9725 142.658 32.768 142.313 32.5098C141.969 32.2299 141.689 31.8963 141.474 31.5089C141.28 31.1215 141.183 30.6802 141.183 30.1852C141.183 29.4318 141.366 28.7538 141.732 28.1511C142.12 27.5269 142.507 27.0211 142.894 26.6337C143.045 26.483 143.217 26.3216 143.411 26.1494C143.605 25.9772 143.788 25.8265 143.96 25.6974C144.132 25.5467 144.283 25.4283 144.412 25.3422C144.541 25.2561 144.616 25.2131 144.638 25.2131C144.745 25.2131 144.799 25.2776 144.799 25.4068C144.799 25.4714 144.659 25.6005 144.38 25.7942C144.121 25.9664 143.745 26.2893 143.25 26.7628C142.754 27.2363 142.346 27.7744 142.023 28.3771C141.721 28.9798 141.571 29.5394 141.571 30.056C141.571 30.96 141.861 31.6703 142.442 32.1869C143.045 32.7035 143.788 32.9618 144.67 32.9618C145.574 32.9618 146.392 32.7358 147.124 32.2838C147.877 31.8102 148.523 31.2075 149.061 30.4757C149.621 29.7439 150.051 28.9475 150.353 28.0865C150.654 27.2256 150.805 26.3861 150.805 25.5682C150.805 24.8364 150.718 24.223 150.546 23.7279C150.374 23.2329 150.159 22.8347 149.9 22.5333C149.642 22.2105 149.352 21.9845 149.029 21.8553C148.706 21.7262 148.383 21.6616 148.06 21.6616C147.802 21.6616 147.597 21.6831 147.447 21.7262C147.318 21.7692 147.178 21.8123 147.027 21.8553C146.898 21.8984 146.736 21.9414 146.543 21.9845C146.371 22.0275 146.123 22.049 145.8 22.049C145.391 22.049 145.187 21.8984 145.187 21.597C145.187 21.4248 145.273 21.2957 145.445 21.2096C145.639 21.1235 145.972 21.0804 146.446 21.0804C146.769 21.0804 147.006 21.0912 147.156 21.1127C147.328 21.1343 147.479 21.145 147.608 21.145C148.254 21.145 148.846 20.9621 149.384 20.5961C149.922 20.2302 150.374 19.7782 150.74 19.2401C151.106 18.6805 151.386 18.0778 151.579 17.4321C151.795 16.7864 151.902 16.1729 151.902 15.5918C151.902 14.7739 151.784 14.1066 151.547 13.59C151.31 13.0735 150.912 12.643 150.353 12.2986C149.362 12.9658 148.48 13.7945 147.705 14.7846C146.93 15.7532 146.22 16.7864 145.574 17.8841C144.928 18.9818 144.315 20.0903 143.734 21.2096C143.153 22.3288 142.561 23.3728 141.958 24.3413C141.312 25.3745 140.559 26.4292 139.698 27.5054C138.837 28.5816 137.89 29.5502 136.857 30.4112C135.824 31.2721 134.704 31.9824 133.499 32.542C132.315 33.0801 131.056 33.3492 129.722 33.3492C129.162 33.3492 128.645 33.2846 128.172 33.1555C127.698 33.0048 127.279 32.8003 126.913 32.542C126.568 32.2838 126.299 31.9932 126.106 31.6703C125.912 31.3259 125.815 30.96 125.815 30.5726C125.815 30.2067 125.944 29.9053 126.202 29.6686C126.461 29.4103 126.773 29.2811 127.139 29.2811C127.935 29.2811 128.333 29.6686 128.333 30.4434C128.333 30.6587 128.28 30.8632 128.172 31.0569C128.064 31.2291 128.01 31.4013 128.01 31.5735C128.01 31.9394 128.15 32.2622 128.43 32.542C128.71 32.8219 129.194 32.9618 129.883 32.9618C130.744 32.9618 131.594 32.8219 132.434 32.542C133.273 32.2622 134.102 31.7779 134.92 31.0892C135.738 30.4004 136.566 29.4856 137.406 28.3448C138.267 27.1825 139.149 25.7189 140.053 23.9539C140.763 22.5764 141.463 21.3172 142.152 20.1764C142.862 19.0356 143.605 17.981 144.38 17.0124C145.176 16.0438 146.026 15.1505 146.93 14.3326C147.834 13.5147 148.824 12.7506 149.9 12.0403C148.953 11.6098 147.953 11.3085 146.898 11.1363C145.843 10.9641 144.789 10.878 143.734 10.878C142.528 10.878 141.291 11.0287 140.021 11.33C140.516 11.782 140.871 12.3739 141.086 13.1057C141.323 13.8376 141.442 14.5263 141.442 15.1721C141.442 16.3344 141.172 17.5182 140.634 18.7235C140.118 19.9289 139.418 21.0159 138.536 21.9845C137.653 22.953 136.631 23.7494 135.469 24.3736C134.306 24.9763 133.09 25.2776 131.82 25.2776C130.852 25.2776 130.023 24.9871 129.334 24.4059C128.667 23.8248 128.333 22.9638 128.333 21.823C128.333 20.5961 128.678 19.4123 129.366 18.2715C130.077 17.1092 130.97 16.0546 132.046 15.1075C133.122 14.1389 134.295 13.321 135.565 12.6537C136.857 11.965 138.084 11.4807 139.246 11.2009C138.729 10.7919 138.159 10.5013 137.535 10.3291C136.911 10.1354 136.276 10.0386 135.63 10.0386C134.769 10.0386 133.94 10.1677 133.144 10.426C132.369 10.6628 131.637 10.9856 130.948 11.3946C130.281 11.782 129.679 12.2233 129.14 12.7183C128.602 13.2134 128.161 13.7192 127.817 14.2358C127.322 14.9461 126.945 15.538 126.687 16.0115C126.45 16.4635 126.278 16.8294 126.17 17.1092C126.063 17.3675 125.998 17.5505 125.976 17.6581C125.955 17.7442 125.912 17.7872 125.847 17.7872C125.74 17.7872 125.686 17.7334 125.686 17.6258C125.686 17.5397 125.815 17.1738 126.073 16.5281C126.353 15.8608 126.827 15.0644 127.494 14.1389C127.924 13.5362 128.43 12.9658 129.011 12.4277C129.614 11.8681 130.26 11.3838 130.948 10.9749C131.659 10.5659 132.412 10.243 133.209 10.0063C134.005 9.76951 134.823 9.65112 135.662 9.65112C136.394 9.65112 137.104 9.76951 137.793 10.0063C138.503 10.243 139.138 10.5874 139.698 11.0394C140.408 10.8672 141.108 10.7381 141.797 10.652C142.485 10.5444 143.174 10.4906 143.863 10.4906C146.145 10.4906 148.318 10.9103 150.385 11.7497C150.751 11.556 151.127 11.3515 151.515 11.1363C151.924 10.921 152.3 10.8134 152.645 10.8134C152.731 10.8134 152.774 10.8565 152.774 10.9426C152.774 10.9856 152.731 11.0287 152.645 11.0717C152.559 11.0932 152.43 11.1363 152.257 11.2009C152.107 11.2439 151.913 11.33 151.676 11.4592C151.439 11.5668 151.16 11.7282 150.837 11.9434C151.719 12.3955 152.43 12.9874 152.968 13.7192C153.506 14.451 153.775 15.3012 153.775 16.2698C153.775 16.9586 153.613 17.5828 153.291 18.1424C152.968 18.702 152.548 19.1971 152.031 19.6276C151.515 20.058 150.944 20.4132 150.32 20.693C149.696 20.9728 149.083 21.1881 148.48 21.3387V21.4033ZM128.85 21.9199C128.85 22.7808 129.087 23.4696 129.56 23.9862C130.055 24.5028 130.798 24.7611 131.788 24.7611C132.843 24.7611 133.887 24.4167 134.92 23.7279C135.953 23.0176 136.878 22.1566 137.696 21.145C138.536 20.1119 139.203 19.0141 139.698 17.8518C140.215 16.6895 140.473 15.6348 140.473 14.6878C140.473 13.9129 140.387 13.2564 140.215 12.7183C140.064 12.1802 139.849 11.7605 139.569 11.4592C138.493 11.7174 137.33 12.1479 136.082 12.7506C134.834 13.3533 133.671 14.1066 132.595 15.0106C131.519 15.9146 130.626 16.9478 129.915 18.1101C129.205 19.2724 128.85 20.5423 128.85 21.9199Z" fill="white"/>
<path d="M163.31 26.4077C163.31 26.7305 163.256 27.0857 163.149 27.4731C163.041 27.839 162.89 28.2049 162.697 28.5708C162.524 28.9152 162.32 29.2596 162.083 29.604C161.868 29.9269 161.642 30.2067 161.405 30.4434C161.491 30.4865 161.61 30.508 161.76 30.508C162.32 30.508 162.858 30.3681 163.375 30.0883C163.891 29.787 164.354 29.3995 164.763 28.926C164.978 28.6892 165.107 28.5386 165.15 28.474C165.215 28.4094 165.269 28.3771 165.312 28.3771C165.419 28.3771 165.473 28.4309 165.473 28.5386C165.473 28.5816 165.43 28.6569 165.344 28.7646C165.258 28.8722 165.032 29.1197 164.666 29.5071C164.257 29.9376 163.773 30.282 163.213 30.5403C162.675 30.7771 162.094 30.8954 161.47 30.8954C161.255 30.8954 161.115 30.8847 161.05 30.8632C160.555 31.4228 159.963 31.9501 159.274 32.4452C158.607 32.9187 157.821 33.1555 156.917 33.1555C156.272 33.1555 155.777 32.8972 155.432 32.3806C155.088 31.864 154.916 31.1645 154.916 30.282C154.916 29.7009 154.937 29.3027 154.98 29.0874C155.045 28.8722 155.077 28.7107 155.077 28.6031C155.077 28.474 155.045 28.4094 154.98 28.4094C154.851 28.4094 154.733 28.4955 154.625 28.6677C154.518 28.8399 154.442 28.926 154.399 28.926C154.27 28.926 154.205 28.8722 154.205 28.7646C154.205 28.7215 154.259 28.6247 154.367 28.474C154.496 28.3233 154.657 28.1511 154.851 27.9574C155.045 27.7637 155.249 27.5592 155.465 27.344C155.68 27.1287 155.884 26.9242 156.078 26.7305C157.025 25.8265 157.961 25.1808 158.887 24.7934C159.812 24.3844 160.641 24.1799 161.373 24.1799C161.997 24.1799 162.471 24.3952 162.794 24.8256C163.138 25.2346 163.31 25.7619 163.31 26.4077ZM162.6 26.0202C162.6 25.6328 162.514 25.2992 162.342 25.0194C162.169 24.718 161.879 24.5674 161.47 24.5674C160.91 24.5674 160.318 24.8041 159.694 25.2776C159.07 25.7512 158.499 26.3431 157.983 27.0534C157.466 27.7637 157.036 28.5278 156.691 29.3457C156.369 30.1636 156.207 30.9062 156.207 31.5735C156.207 32.0255 156.282 32.3376 156.433 32.5098C156.605 32.6819 156.81 32.768 157.047 32.768C157.692 32.768 158.338 32.5528 158.984 32.1223C159.651 31.6918 160.243 31.1537 160.76 30.508C161.298 29.8408 161.739 29.1089 162.083 28.3125C162.428 27.5162 162.6 26.7521 162.6 26.0202Z" fill="white"/>
<path d="M165.57 33.1555C165.678 32.9618 165.872 32.6497 166.152 32.2192C166.453 31.7887 166.797 31.3044 167.185 30.7663C167.572 30.2067 167.97 29.6255 168.379 29.0228C168.81 28.4202 169.197 27.8605 169.542 27.344C169.886 26.8059 170.166 26.3323 170.381 25.9234C170.618 25.5144 170.736 25.2238 170.736 25.0516C170.736 24.8794 170.682 24.7611 170.575 24.6965C170.489 24.6104 170.381 24.5674 170.252 24.5674C169.8 24.5674 169.316 24.7611 168.799 25.1485C168.304 25.5144 167.647 26.1494 166.83 27.0534C166.442 27.4623 166.141 27.7852 165.926 28.022C165.732 28.2587 165.581 28.4417 165.474 28.5708C165.387 28.6785 165.323 28.7538 165.28 28.7968C165.258 28.8184 165.237 28.8291 165.215 28.8291C165.108 28.8291 165.054 28.7646 165.054 28.6354C165.054 28.6139 165.097 28.5493 165.183 28.4417C165.269 28.3126 165.377 28.1834 165.506 28.0543C165.635 27.9036 165.764 27.7529 165.893 27.6023C166.044 27.4301 166.173 27.2794 166.281 27.1502C167.056 26.2462 167.777 25.5252 168.444 24.9871C169.111 24.449 169.757 24.1799 170.381 24.1799C170.812 24.1799 171.113 24.3198 171.285 24.5996C171.479 24.8795 171.576 25.2669 171.576 25.7619C171.576 26.0848 171.5 26.4399 171.35 26.8274C171.199 27.1933 171.016 27.5592 170.801 27.9251C170.607 28.291 170.392 28.6462 170.155 28.9906C169.918 29.3134 169.714 29.5932 169.542 29.83L169.606 29.8946C169.929 29.5932 170.37 29.1305 170.93 28.5063C171.511 27.8605 172.125 27.2256 172.77 26.6014C173.416 25.9557 174.051 25.396 174.675 24.9225C175.299 24.4274 175.816 24.1799 176.225 24.1799C176.634 24.1799 176.924 24.3521 177.097 24.6965C177.29 25.0194 177.387 25.353 177.387 25.6974C177.387 26.257 177.258 26.7736 177 27.2471C176.741 27.6991 176.472 28.1081 176.193 28.474C174.75 30.4327 174.029 31.6488 174.029 32.1223C174.029 32.2945 174.072 32.4452 174.159 32.5743C174.245 32.7035 174.374 32.768 174.546 32.768C174.912 32.768 175.407 32.5205 176.031 32.0255C176.655 31.5089 177.301 30.8954 177.968 30.1852C178.377 29.7547 178.689 29.421 178.905 29.1843C179.12 28.926 179.271 28.743 179.357 28.6354C179.464 28.5063 179.529 28.4309 179.55 28.4094C179.593 28.3664 179.636 28.3448 179.679 28.3448C179.766 28.3448 179.809 28.3986 179.809 28.5063C179.809 28.5493 179.723 28.6785 179.55 28.8937C179.378 29.1089 179.174 29.3457 178.937 29.604C178.722 29.8623 178.496 30.1098 178.259 30.3466C178.044 30.5833 177.882 30.7555 177.775 30.8632C177.064 31.5735 176.429 32.1331 175.87 32.542C175.31 32.951 174.847 33.1555 174.481 33.1555C173.986 33.1555 173.62 32.9618 173.384 32.5743C173.168 32.1654 173.061 31.6703 173.061 31.0892C173.061 30.4434 173.244 29.8085 173.61 29.1843C173.976 28.5386 174.374 27.9466 174.804 27.4085C175.235 26.8489 175.633 26.3539 175.999 25.9234C176.365 25.4929 176.548 25.17 176.548 24.9548C176.548 24.6965 176.397 24.5674 176.096 24.5674C175.837 24.5674 175.472 24.7395 174.998 25.0839C174.524 25.4283 174.008 25.8696 173.448 26.4077C172.889 26.9458 172.307 27.5484 171.705 28.2157C171.102 28.8614 170.532 29.4964 169.994 30.1206C169.456 30.7448 168.982 31.3152 168.573 31.8317C168.164 32.3268 167.884 32.7035 167.734 32.9618L165.57 33.1555Z" fill="white"/>
<path d="M187.116 18.1747L189.118 18.0455L187.019 21.2742H190.797C190.904 21.2742 190.958 21.3387 190.958 21.4679C190.958 21.597 190.904 21.6616 190.797 21.6616H186.793C186.621 21.9629 186.352 22.4042 185.986 22.9853C185.62 23.545 185.211 24.1799 184.759 24.8902C184.307 25.579 183.834 26.3108 183.339 27.0857C182.865 27.8605 182.424 28.5924 182.015 29.2811C181.628 29.9484 181.305 30.5618 181.046 31.1215C180.788 31.6596 180.659 32.047 180.659 32.2838C180.659 32.6066 180.863 32.768 181.272 32.768C181.767 32.768 182.295 32.5743 182.854 32.1869C183.436 31.7779 184.092 31.2075 184.824 30.4757C185.233 30.0668 185.556 29.7331 185.792 29.4749C186.051 29.195 186.244 28.9798 186.374 28.8291C186.524 28.6569 186.621 28.5386 186.664 28.474C186.729 28.3879 186.783 28.3448 186.826 28.3448C186.933 28.3448 186.987 28.4094 186.987 28.5386C186.987 28.5601 186.922 28.6462 186.793 28.7968C186.686 28.9475 186.546 29.1197 186.374 29.3134C186.201 29.5071 186.008 29.7116 185.792 29.9269C185.599 30.1421 185.416 30.3358 185.244 30.508C184.253 31.4981 183.446 32.1869 182.822 32.5743C182.198 32.9618 181.66 33.1555 181.208 33.1555C180.648 33.134 180.25 32.9618 180.013 32.6389C179.798 32.2945 179.69 31.9394 179.69 31.5735C179.69 31.1214 179.755 30.6802 179.884 30.2497C180.013 29.7977 180.207 29.3349 180.465 28.8614C180.723 28.3664 181.036 27.8498 181.401 27.3117C181.789 26.7521 182.219 26.1278 182.693 25.4391L182.628 25.3745C182.327 25.7404 182.026 26.0848 181.724 26.4077C181.445 26.7305 181.089 27.1395 180.659 27.6345C180.594 27.7206 180.487 27.839 180.336 27.9897C180.207 28.1404 180.078 28.291 179.949 28.4417C179.819 28.5924 179.701 28.7323 179.593 28.8614C179.486 28.969 179.421 29.0228 179.4 29.0228C179.292 29.0228 179.238 28.9798 179.238 28.8937C179.238 28.8722 179.249 28.8399 179.271 28.7968C179.292 28.7323 179.346 28.6462 179.432 28.5386C179.54 28.4309 179.68 28.2803 179.852 28.0865C180.045 27.8713 180.304 27.5807 180.627 27.2148C180.863 26.9565 181.154 26.6229 181.498 26.2139C181.864 25.805 182.241 25.353 182.628 24.8579C183.037 24.3629 183.446 23.8463 183.855 23.3082C184.286 22.7486 184.684 22.1997 185.05 21.6616H183.888C183.78 21.6616 183.726 21.597 183.726 21.4679C183.726 21.3387 183.769 21.2742 183.855 21.2742H185.211L187.116 18.1747Z" fill="white"/>
<path d="M194.984 25.7297C194.984 26.3323 194.725 26.8812 194.209 27.3762C193.692 27.8498 193.079 28.2695 192.368 28.6354C191.658 28.9798 190.926 29.2704 190.173 29.5071C189.42 29.7439 188.806 29.9053 188.333 29.9914C188.29 30.1636 188.257 30.3466 188.236 30.5403C188.214 30.7125 188.204 30.8847 188.204 31.0569C188.204 31.6811 188.3 32.1223 188.494 32.3806C188.709 32.6174 189.065 32.7465 189.56 32.768C189.99 32.7896 190.603 32.6174 191.4 32.2515C192.196 31.864 193.09 31.186 194.08 30.2174C194.704 29.5717 195.124 29.0982 195.339 28.7968C195.576 28.4955 195.726 28.3448 195.791 28.3448C195.898 28.3448 195.952 28.4094 195.952 28.5386C195.952 28.5816 195.877 28.6892 195.726 28.8614C195.597 29.0336 195.425 29.2488 195.21 29.5071C194.994 29.7439 194.747 30.0022 194.467 30.282C194.209 30.5618 193.961 30.8094 193.724 31.0246C192.907 31.7779 192.153 32.316 191.464 32.6389C190.797 32.9618 190.087 33.134 189.334 33.1555C188.882 33.1555 188.494 33.0586 188.171 32.8649C187.87 32.6712 187.612 32.4129 187.396 32.09C187.181 31.7672 187.02 31.4013 186.912 30.9923C186.826 30.5833 186.783 30.1636 186.783 29.7331C186.783 29.4964 186.794 29.2919 186.815 29.1197C186.858 28.9475 186.88 28.8399 186.88 28.7968C186.88 28.7753 186.869 28.7538 186.848 28.7323C186.783 28.7968 186.751 28.8291 186.751 28.8291C186.729 28.8291 186.697 28.8076 186.654 28.7646C186.611 28.7215 186.589 28.6785 186.589 28.6354C186.589 28.6139 186.632 28.5386 186.718 28.4094C186.826 28.2803 186.944 28.1404 187.074 27.9897C187.224 27.839 187.364 27.6991 187.493 27.57C187.622 27.4193 187.719 27.3117 187.784 27.2471C188.688 26.3431 189.624 25.6113 190.593 25.0516C191.561 24.4705 192.487 24.1799 193.369 24.1799C193.864 24.1799 194.252 24.3306 194.532 24.6319C194.833 24.9117 194.984 25.2776 194.984 25.7297ZM193.369 24.5674C192.939 24.5674 192.465 24.7503 191.949 25.1162C191.432 25.4606 190.926 25.8911 190.431 26.4077C189.958 26.9242 189.538 27.4731 189.172 28.0543C188.806 28.6354 188.569 29.152 188.462 29.604C189 29.5394 189.592 29.3888 190.238 29.152C190.883 28.8937 191.486 28.5708 192.046 28.1834C192.605 27.7744 193.068 27.3224 193.434 26.8274C193.821 26.3108 194.015 25.7619 194.015 25.1808C194.015 24.7718 193.8 24.5674 193.369 24.5674Z" fill="white"/>
<path d="M201.936 33.1555C202.043 32.9618 202.226 32.6497 202.484 32.2192C202.764 31.7887 203.076 31.3044 203.421 30.7663C203.765 30.2282 204.12 29.6686 204.486 29.0874C204.852 28.4847 205.186 27.9251 205.487 27.4085C205.81 26.8704 206.068 26.3969 206.262 25.9879C206.456 25.5575 206.552 25.2454 206.552 25.0516C206.552 24.7503 206.413 24.5889 206.133 24.5674C205.896 24.5458 205.562 24.7073 205.132 25.0516C204.723 25.3745 204.249 25.8158 203.711 26.3754C203.195 26.9135 202.657 27.5162 202.097 28.1834C201.537 28.8507 201.01 29.5071 200.515 30.1529C200.02 30.7771 199.579 31.3475 199.191 31.864C198.804 32.3591 198.535 32.725 198.384 32.9618L196.285 33.1555C197.857 30.6587 199.073 28.743 199.934 27.4085C200.795 26.074 201.225 25.2776 201.225 25.0194C201.225 24.718 201.064 24.5674 200.741 24.5674C200.289 24.5674 199.794 24.7826 199.256 25.2131C198.739 25.622 198.212 26.1063 197.674 26.666C196.92 27.4839 196.415 28.0543 196.156 28.3771C195.92 28.6785 195.769 28.8291 195.704 28.8291C195.64 28.8291 195.597 28.8076 195.575 28.7646C195.554 28.7215 195.543 28.6785 195.543 28.6354C195.543 28.5924 195.704 28.3879 196.027 28.022C196.372 27.6345 196.845 27.0964 197.448 26.4077C198.201 25.5682 198.847 24.9871 199.385 24.6642C199.923 24.3413 200.386 24.1799 200.773 24.1799C201.634 24.1799 202.065 24.5889 202.065 25.4068C202.065 25.7727 202 26.1494 201.871 26.5368C201.742 26.9242 201.58 27.3117 201.387 27.6991C201.193 28.065 200.988 28.4309 200.773 28.7968C200.558 29.1628 200.375 29.4856 200.224 29.7654L200.289 29.83C200.569 29.5287 200.956 29.0659 201.451 28.4417C201.968 27.8175 202.506 27.1933 203.066 26.5691C203.647 25.9234 204.217 25.3637 204.777 24.8902C205.358 24.4167 205.864 24.1799 206.294 24.1799C206.66 24.1799 206.929 24.2983 207.101 24.5351C207.295 24.7503 207.392 25.1162 207.392 25.6328C207.392 25.9987 207.338 26.3646 207.23 26.7305C207.123 27.0964 206.983 27.4623 206.811 27.8283C206.66 28.1726 206.488 28.5063 206.294 28.8291C206.122 29.152 205.961 29.4426 205.81 29.7009L205.874 29.7654C206.154 29.4426 206.542 28.969 207.037 28.3448C207.553 27.7206 208.102 27.1072 208.683 26.5045C209.286 25.8803 209.878 25.3422 210.459 24.8902C211.062 24.4167 211.589 24.1799 212.041 24.1799C212.342 24.1799 212.601 24.3091 212.816 24.5674C213.053 24.8256 213.171 25.2454 213.171 25.8265C213.171 26.3431 213.01 26.8812 212.687 27.4408C212.364 28.0005 211.998 28.5601 211.589 29.1197C211.18 29.6578 210.803 30.1852 210.459 30.7017C210.115 31.1968 209.921 31.6488 209.878 32.0578C209.856 32.2299 209.889 32.3914 209.975 32.542C210.082 32.6927 210.222 32.768 210.395 32.768C210.696 32.768 211.105 32.5851 211.621 32.2192C212.159 31.8317 212.73 31.3259 213.333 30.7017C213.871 30.1206 214.28 29.6793 214.559 29.378C214.839 29.0551 215.044 28.8291 215.173 28.7C215.302 28.5493 215.377 28.4632 215.399 28.4417C215.442 28.3986 215.485 28.3771 215.528 28.3771C215.636 28.3771 215.689 28.4309 215.689 28.5386C215.689 28.5816 215.625 28.6785 215.496 28.8291C215.388 28.9583 215.248 29.1197 215.076 29.3134C214.904 29.5071 214.71 29.7224 214.495 29.9591C214.28 30.1959 214.064 30.4219 213.849 30.6372C213.031 31.4766 212.342 32.1116 211.783 32.542C211.245 32.951 210.75 33.1555 210.298 33.1555C209.803 33.1555 209.447 32.9725 209.232 32.6066C209.017 32.2192 208.909 31.7134 208.909 31.0892C208.909 30.4219 209.082 29.7762 209.426 29.152C209.792 28.5278 210.19 27.9466 210.62 27.4085C211.051 26.8704 211.438 26.3861 211.783 25.9557C212.149 25.5252 212.332 25.1593 212.332 24.8579C212.332 24.7934 212.299 24.7288 212.235 24.6642C212.192 24.5996 212.084 24.5674 211.912 24.5674C211.611 24.5674 211.223 24.7503 210.75 25.1162C210.276 25.4606 209.77 25.9126 209.232 26.4722C208.694 27.0103 208.145 27.613 207.586 28.2803C207.026 28.926 206.499 29.5609 206.004 30.1852C205.53 30.8093 205.11 31.3797 204.744 31.8963C204.379 32.3914 204.12 32.7465 203.97 32.9618L201.936 33.1555Z" fill="white"/>
<path d="M224.482 18.4975L217.605 30.1529L217.669 30.2174C217.971 29.873 218.401 29.3672 218.961 28.7C219.542 28.0112 220.156 27.3332 220.801 26.666C221.468 25.9987 222.136 25.4176 222.803 24.9225C223.492 24.4274 224.094 24.1799 224.611 24.1799C225.042 24.1799 225.343 24.3521 225.515 24.6965C225.709 25.0194 225.806 25.4068 225.806 25.8588C225.806 26.3754 225.623 26.9242 225.257 27.5054C224.912 28.065 224.514 28.6354 224.062 29.2166C223.632 29.7977 223.233 30.3573 222.868 30.8954C222.523 31.4335 222.351 31.9071 222.351 32.316C222.351 32.6174 222.523 32.768 222.868 32.768C223.04 32.768 223.233 32.7358 223.449 32.6712C223.685 32.5851 223.955 32.4452 224.256 32.2515C224.557 32.0362 224.902 31.7457 225.289 31.3797C225.676 31.0138 226.118 30.5511 226.613 29.9914C226.936 29.6255 227.183 29.3349 227.355 29.1197C227.549 28.9045 227.689 28.743 227.775 28.6354C227.883 28.5063 227.947 28.4309 227.969 28.4094C228.012 28.3664 228.055 28.3448 228.098 28.3448C228.206 28.3448 228.259 28.3986 228.259 28.5063C228.259 28.5493 228.249 28.5924 228.227 28.6354C228.206 28.6569 228.163 28.7107 228.098 28.7968C228.033 28.8614 227.936 28.969 227.807 29.1197C227.678 29.2488 227.495 29.4533 227.258 29.7331C226.161 31.0461 225.257 31.9501 224.546 32.4452C223.836 32.9187 223.244 33.1555 222.771 33.1555C222.276 33.1555 221.921 32.9725 221.705 32.6066C221.49 32.2192 221.382 31.7134 221.382 31.0892C221.382 30.4434 221.555 29.83 221.899 29.2488C222.265 28.6462 222.663 28.0865 223.094 27.57C223.546 27.0534 223.944 26.5799 224.288 26.1494C224.654 25.6974 224.837 25.3099 224.837 24.9871C224.837 24.7073 224.697 24.5674 224.417 24.5674C224.116 24.5674 223.61 24.8149 222.9 25.3099C222.19 25.805 221.35 26.5583 220.382 27.57C219.413 28.5816 218.358 29.8515 217.217 31.3797C216.077 32.908 214.914 34.7052 213.731 36.7715L211.051 41.4853L208.888 41.6145L219.962 23.6311L219.897 23.5665C219.467 24.0615 219.004 24.6212 218.509 25.2454C218.014 25.848 217.54 26.4184 217.088 26.9565C216.636 27.4946 216.249 27.9466 215.926 28.3125C215.625 28.6785 215.463 28.8614 215.442 28.8614C215.313 28.8614 215.248 28.8076 215.248 28.7C215.248 28.6569 215.259 28.6139 215.28 28.5708C215.323 28.5278 215.399 28.4417 215.506 28.3125C215.635 28.1619 215.829 27.9466 216.087 27.6668C216.346 27.3655 216.701 26.935 217.153 26.3754C217.648 25.7512 218.078 25.2131 218.444 24.7611C218.832 24.3091 219.165 23.9001 219.445 23.5342C219.747 23.1683 220.016 22.8347 220.252 22.5333C220.489 22.2105 220.726 21.8768 220.963 21.5324C221.221 21.1665 221.49 20.7683 221.77 20.3379C222.071 19.9074 222.416 19.3908 222.803 18.7881L224.482 18.4975Z" fill="white"/>
<path d="M229.734 33.1555C229.239 33.1555 228.851 33.0048 228.572 32.7035C228.313 32.3806 228.184 31.9717 228.184 31.4766C228.184 30.9385 228.292 30.4004 228.507 29.8623C228.722 29.3242 228.981 28.7968 229.282 28.2803C229.605 27.7637 229.938 27.2686 230.283 26.7951C230.649 26.3216 230.972 25.8803 231.251 25.4714L231.187 25.4068C230.993 25.6005 230.681 25.9234 230.251 26.3754C229.82 26.8274 229.217 27.4946 228.442 28.3771C228.27 28.5708 228.163 28.6892 228.12 28.7323C228.077 28.7753 228.034 28.7968 227.99 28.7968C227.904 28.7968 227.861 28.7323 227.861 28.6031C227.861 28.5601 227.915 28.4847 228.023 28.3771C228.13 28.248 228.399 27.9359 228.83 27.4408C229.045 27.2041 229.282 26.9458 229.54 26.666C229.82 26.3646 230.089 26.074 230.347 25.7942C230.606 25.4929 230.842 25.2131 231.058 24.9548C231.294 24.6965 231.477 24.4813 231.607 24.3091L233.641 24.1799C232.672 25.7727 231.886 27.0534 231.284 28.022C230.703 28.969 230.251 29.7224 229.928 30.282C229.626 30.8201 229.422 31.2183 229.314 31.4766C229.207 31.7134 229.153 31.9178 229.153 32.09C229.153 32.3699 229.217 32.5528 229.346 32.6389C229.476 32.725 229.616 32.768 229.766 32.768C230.025 32.768 230.304 32.6927 230.606 32.542C230.907 32.3914 231.219 32.2084 231.542 31.9932C231.865 31.7564 232.177 31.4981 232.478 31.2183C232.801 30.9385 233.092 30.6587 233.35 30.3789C233.565 30.1636 233.78 29.9376 233.996 29.7009C234.232 29.4426 234.437 29.2058 234.609 28.9906C234.803 28.7753 234.964 28.6031 235.093 28.474C235.223 28.3233 235.298 28.248 235.319 28.248C235.449 28.248 235.513 28.3018 235.513 28.4094C235.513 28.4525 235.352 28.6677 235.029 29.0551C234.728 29.421 234.232 29.9591 233.544 30.6694C231.951 32.3268 230.681 33.1555 229.734 33.1555ZM234.771 19.0787C234.771 18.7989 234.867 18.5298 235.061 18.2715C235.255 17.9917 235.535 17.8518 235.901 17.8518C236.137 17.8518 236.32 17.9379 236.449 18.1101C236.579 18.2608 236.643 18.4545 236.643 18.6913C236.643 18.9711 236.546 19.2509 236.353 19.5307C236.159 19.789 235.879 19.9181 235.513 19.9181C235.276 19.9181 235.093 19.8428 234.964 19.6921C234.835 19.5199 234.771 19.3155 234.771 19.0787Z" fill="white"/>
<path d="M125.465 98.4419L112.092 49.221L138.838 49.221L125.465 98.4419Z" fill="#576748"/>
</svg>
